<svg width="1329" height="595" viewBox="0 0 1329 595" fill="none" xmlns="http://www.w3.org/2000/svg">
<g clip-path="url(#clip0_366_2)">
<rect width="1329" height="595" fill="white"/>
<g filter="url(#filter0_d_366_2)">
<rect width="1329" height="599" fill="url(#paint0_radial_366_2)"/>
</g>
<g style="mix-blend-mode:soft-light" opacity="0.35">
<path d="M184.136 126.487C188.726 116.239 203.274 116.239 207.864 126.486L278.027 283.125C279.922 287.354 283.925 290.255 288.534 290.739L459.806 308.728C471.013 309.905 475.517 323.811 467.127 331.335L339.279 445.99C335.813 449.098 334.273 453.824 335.244 458.378L370.967 625.983C373.311 636.98 361.534 645.565 351.782 639.968L202.471 554.269C198.464 551.969 193.536 551.969 189.529 554.269L40.2183 639.968C30.4663 645.565 18.6886 636.98 21.0325 625.983L56.7559 458.378C57.7265 453.824 56.1874 449.098 52.7209 445.99L-75.1273 331.335C-83.5169 323.811 -79.0133 309.905 -67.8058 308.728L103.467 290.739C108.075 290.255 112.078 287.354 113.973 283.125L184.136 126.487Z" fill="white"/>
</g>
<path d="M701.255 216.648L732.676 163.797H748.789V242H732.676V189.148L701.255 242H685.142V163.797H701.255V216.648ZM787.676 214.285H776.182V207.356H784.399C786.333 207.356 787.873 207.088 789.019 206.551C790.2 206.014 791.042 205.262 791.543 204.295C792.08 203.292 792.349 202.164 792.349 200.911C792.349 199.801 792.116 198.745 791.65 197.742C791.221 196.704 790.433 195.862 789.287 195.218C788.177 194.537 786.602 194.197 784.561 194.197C782.878 194.197 781.374 194.448 780.049 194.949C778.76 195.451 777.739 196.185 776.987 197.151C776.271 198.082 775.913 199.21 775.913 200.535H760.391C760.391 196.847 761.447 193.696 763.56 191.082C765.672 188.432 768.501 186.409 772.046 185.013C775.591 183.58 779.476 182.864 783.701 182.864C787.389 182.864 790.719 183.24 793.691 183.992C796.663 184.708 799.206 185.783 801.318 187.215C803.431 188.647 805.042 190.42 806.152 192.532C807.298 194.609 807.871 197.026 807.871 199.783C807.871 201.753 807.406 203.615 806.475 205.369C805.544 207.124 804.201 208.681 802.446 210.042C800.692 211.367 798.561 212.405 796.055 213.157C793.584 213.909 790.791 214.285 787.676 214.285ZM776.182 210.418H787.676C791.149 210.418 794.193 210.758 796.807 211.438C799.456 212.083 801.676 213.05 803.467 214.339C805.257 215.628 806.6 217.221 807.495 219.119C808.426 220.981 808.892 223.13 808.892 225.564C808.892 228.322 808.283 230.792 807.065 232.977C805.848 235.125 804.111 236.951 801.855 238.455C799.6 239.959 796.932 241.105 793.853 241.893C790.773 242.68 787.389 243.074 783.701 243.074C779.762 243.074 775.931 242.43 772.207 241.141C768.483 239.852 765.422 237.864 763.022 235.179C760.659 232.493 759.478 229.038 759.478 224.812H775C775 226.03 775.358 227.176 776.074 228.25C776.79 229.324 777.865 230.184 779.297 230.828C780.729 231.437 782.502 231.741 784.614 231.741C786.727 231.741 788.428 231.401 789.717 230.721C791.006 230.04 791.937 229.145 792.51 228.035C793.118 226.889 793.423 225.708 793.423 224.49C793.423 222.771 793.083 221.375 792.402 220.301C791.758 219.227 790.755 218.439 789.395 217.938C788.07 217.436 786.405 217.186 784.399 217.186H776.182V210.418ZM854.009 158.318H866.523C866.523 161.219 866.165 163.707 865.449 165.784C864.733 167.825 863.587 169.58 862.012 171.048C860.436 172.48 858.324 173.698 855.674 174.7C853.024 175.703 849.748 176.562 845.845 177.278C842.837 177.887 840.223 178.89 838.003 180.286C835.819 181.683 834.01 183.598 832.578 186.033C831.182 188.432 830.179 191.476 829.57 195.164C828.962 198.816 828.747 203.221 828.926 208.377V210.955L816.895 212.62V210.042C816.93 203.024 817.557 196.919 818.774 191.727C820.028 186.535 821.8 182.166 824.092 178.621C826.383 175.04 829.141 172.194 832.363 170.081C835.586 167.933 839.167 166.429 843.105 165.569C845.755 164.996 847.868 164.441 849.443 163.904C851.055 163.331 852.218 162.615 852.935 161.756C853.651 160.896 854.009 159.751 854.009 158.318ZM847.241 187.161C851.18 187.161 854.671 187.841 857.715 189.202C860.758 190.527 863.319 192.407 865.396 194.842C867.472 197.277 869.048 200.141 870.122 203.436C871.196 206.73 871.733 210.328 871.733 214.231V215.359C871.733 219.334 871.125 223.022 869.907 226.424C868.726 229.79 866.971 232.726 864.644 235.232C862.316 237.739 859.451 239.69 856.05 241.087C852.648 242.448 848.763 243.128 844.395 243.128C839.99 243.128 836.069 242.394 832.632 240.926C829.23 239.422 826.348 237.327 823.984 234.642C821.657 231.92 819.884 228.751 818.667 225.135C817.485 221.482 816.895 217.508 816.895 213.211V212.029C816.895 211.421 817.163 210.83 817.7 210.257C818.273 209.648 818.936 208.968 819.688 208.216C820.475 207.464 821.174 206.515 821.782 205.369C823.931 201.395 826.276 198.064 828.818 195.379C831.361 192.658 834.136 190.617 837.144 189.256C840.187 187.859 843.553 187.161 847.241 187.161ZM844.287 199.246C841.387 199.246 839.059 199.944 837.305 201.341C835.55 202.701 834.279 204.528 833.491 206.819C832.739 209.075 832.363 211.546 832.363 214.231V215.359C832.363 217.544 832.578 219.585 833.008 221.482C833.438 223.344 834.118 225.009 835.049 226.478C835.98 227.91 837.215 229.038 838.755 229.861C840.295 230.649 842.174 231.043 844.395 231.043C846.543 231.043 848.369 230.649 849.873 229.861C851.413 229.038 852.648 227.91 853.579 226.478C854.51 225.009 855.19 223.344 855.62 221.482C856.05 219.585 856.265 217.544 856.265 215.359V214.231C856.265 212.19 856.05 210.275 855.62 208.484C855.19 206.658 854.51 205.065 853.579 203.704C852.648 202.308 851.413 201.215 849.873 200.428C848.333 199.64 846.471 199.246 844.287 199.246ZM895.635 195.057V264.344H880.166V183.885H894.507L895.635 195.057ZM932.427 212.298V213.426C932.427 217.651 931.925 221.572 930.923 225.188C929.956 228.805 928.524 231.956 926.626 234.642C924.728 237.291 922.365 239.368 919.536 240.872C916.743 242.34 913.521 243.074 909.868 243.074C906.323 243.074 903.244 242.358 900.63 240.926C898.016 239.493 895.814 237.488 894.023 234.91C892.269 232.296 890.854 229.271 889.78 225.833C888.706 222.396 887.882 218.707 887.31 214.769V211.814C887.882 207.589 888.706 203.722 889.78 200.213C890.854 196.668 892.269 193.606 894.023 191.028C895.814 188.414 897.998 186.391 900.576 184.959C903.19 183.527 906.252 182.811 909.761 182.811C913.449 182.811 916.689 183.509 919.482 184.905C922.311 186.302 924.674 188.307 926.572 190.921C928.506 193.535 929.956 196.65 930.923 200.267C931.925 203.883 932.427 207.894 932.427 212.298ZM916.904 213.426V212.298C916.904 209.827 916.689 207.553 916.26 205.477C915.866 203.364 915.221 201.52 914.326 199.944C913.467 198.369 912.321 197.151 910.889 196.292C909.492 195.397 907.791 194.949 905.786 194.949C903.674 194.949 901.865 195.289 900.361 195.97C898.893 196.65 897.694 197.635 896.763 198.924C895.832 200.213 895.133 201.753 894.668 203.543C894.202 205.333 893.916 207.356 893.809 209.612V217.078C893.988 219.728 894.489 222.109 895.312 224.222C896.136 226.299 897.407 227.946 899.126 229.163C900.845 230.381 903.101 230.989 905.894 230.989C907.935 230.989 909.653 230.542 911.05 229.646C912.446 228.715 913.574 227.444 914.434 225.833C915.329 224.222 915.955 222.36 916.313 220.247C916.707 218.134 916.904 215.861 916.904 213.426ZM973.408 228.895V203.006C973.408 201.144 973.104 199.55 972.495 198.226C971.886 196.865 970.938 195.809 969.648 195.057C968.395 194.305 966.766 193.929 964.761 193.929C963.042 193.929 961.556 194.233 960.303 194.842C959.049 195.415 958.083 196.256 957.402 197.366C956.722 198.44 956.382 199.712 956.382 201.18H940.913C940.913 198.709 941.486 196.364 942.632 194.144C943.778 191.924 945.443 189.972 947.627 188.289C949.811 186.57 952.407 185.228 955.415 184.261C958.459 183.294 961.86 182.811 965.62 182.811C970.132 182.811 974.142 183.562 977.651 185.066C981.16 186.57 983.918 188.826 985.923 191.834C987.964 194.842 988.984 198.602 988.984 203.113V227.981C988.984 231.168 989.181 233.782 989.575 235.823C989.969 237.828 990.542 239.583 991.294 241.087V242H975.664C974.912 240.424 974.339 238.455 973.945 236.092C973.587 233.693 973.408 231.294 973.408 228.895ZM975.449 206.604L975.557 215.359H966.909C964.868 215.359 963.096 215.592 961.592 216.058C960.088 216.523 958.853 217.186 957.886 218.045C956.919 218.868 956.203 219.835 955.737 220.945C955.308 222.055 955.093 223.273 955.093 224.598C955.093 225.923 955.397 227.122 956.006 228.196C956.615 229.235 957.492 230.058 958.638 230.667C959.784 231.24 961.126 231.526 962.666 231.526C964.993 231.526 967.017 231.061 968.735 230.13C970.454 229.199 971.779 228.053 972.71 226.692C973.677 225.332 974.178 224.043 974.214 222.825L978.296 229.378C977.723 230.846 976.935 232.368 975.933 233.943C974.966 235.519 973.73 237.005 972.227 238.401C970.723 239.762 968.914 240.89 966.802 241.785C964.689 242.645 962.183 243.074 959.282 243.074C955.594 243.074 952.246 242.34 949.238 240.872C946.266 239.368 943.903 237.309 942.148 234.695C940.43 232.046 939.57 229.038 939.57 225.672C939.57 222.628 940.143 219.925 941.289 217.562C942.435 215.198 944.118 213.211 946.338 211.6C948.594 209.952 951.405 208.717 954.771 207.894C958.136 207.034 962.039 206.604 966.479 206.604H975.449ZM1040.71 207.356V219.388H1011.17V207.356H1040.71ZM1016.32 183.885V242H1000.85V183.885H1016.32ZM1051.18 183.885V242H1035.66V183.885H1051.18ZM1103.01 207.356V219.388H1073.47V207.356H1103.01ZM1078.63 183.885V242H1063.16V183.885H1078.63ZM1113.49 183.885V242H1097.96V183.885H1113.49ZM1136.21 201.126H1153.07C1158.37 201.126 1162.88 202.003 1166.61 203.758C1170.37 205.477 1173.23 207.876 1175.2 210.955C1177.21 214.035 1178.21 217.597 1178.21 221.644C1178.21 224.58 1177.64 227.301 1176.49 229.808C1175.38 232.278 1173.75 234.427 1171.6 236.253C1169.45 238.079 1166.82 239.493 1163.71 240.496C1160.59 241.499 1157.05 242 1153.07 242H1126.54V183.885H1142.06V229.969H1153.07C1155.4 229.969 1157.26 229.593 1158.66 228.841C1160.09 228.053 1161.13 227.033 1161.77 225.779C1162.45 224.526 1162.79 223.165 1162.79 221.697C1162.79 220.158 1162.45 218.761 1161.77 217.508C1161.13 216.219 1160.09 215.18 1158.66 214.393C1157.26 213.605 1155.4 213.211 1153.07 213.211H1136.21V201.126ZM1203.02 183.885V242H1187.55V183.885H1203.02ZM1243.36 243.074C1238.85 243.074 1234.8 242.358 1231.22 240.926C1227.64 239.458 1224.6 237.435 1222.09 234.856C1219.62 232.278 1217.72 229.288 1216.4 225.887C1215.07 222.449 1214.41 218.797 1214.41 214.93V212.781C1214.41 208.377 1215.04 204.349 1216.29 200.696C1217.54 197.044 1219.33 193.875 1221.66 191.189C1224.02 188.504 1226.89 186.445 1230.25 185.013C1233.62 183.545 1237.42 182.811 1241.64 182.811C1245.76 182.811 1249.41 183.491 1252.6 184.852C1255.78 186.212 1258.45 188.146 1260.6 190.652C1262.78 193.159 1264.43 196.167 1265.54 199.676C1266.65 203.149 1267.21 207.016 1267.21 211.277V217.723H1221.02V207.41H1252.01V206.229C1252.01 204.08 1251.61 202.164 1250.83 200.481C1250.07 198.763 1248.93 197.402 1247.39 196.399C1245.85 195.397 1243.88 194.896 1241.48 194.896C1239.44 194.896 1237.68 195.343 1236.22 196.238C1234.75 197.133 1233.55 198.387 1232.62 199.998C1231.72 201.609 1231.04 203.507 1230.58 205.691C1230.15 207.84 1229.93 210.203 1229.93 212.781V214.93C1229.93 217.257 1230.25 219.406 1230.9 221.375C1231.58 223.344 1232.53 225.045 1233.75 226.478C1235 227.91 1236.5 229.02 1238.26 229.808C1240.05 230.595 1242.07 230.989 1244.33 230.989C1247.12 230.989 1249.72 230.452 1252.11 229.378C1254.55 228.268 1256.64 226.603 1258.4 224.383L1265.92 232.547C1264.7 234.301 1263.04 235.984 1260.92 237.596C1258.85 239.207 1256.34 240.532 1253.4 241.57C1250.47 242.573 1247.12 243.074 1243.36 243.074Z" fill="white"/>
</g>
<defs>
<filter id="filter0_d_366_2" x="-72" y="-72" width="1473" height="743" filterUnits="userSpaceOnUse" color-interpolation-filters="sRGB">
<feFlood flood-opacity="0" result="BackgroundImageFix"/>
<feColorMatrix in="SourceAlpha" type="matrix" values="0 0 0 0 0 0 0 0 0 0 0 0 0 0 0 0 0 0 127 0" result="hardAlpha"/>
<feOffset/>
<feGaussianBlur stdDeviation="36"/>
<feComposite in2="hardAlpha" operator="out"/>
<feColorMatrix type="matrix" values="0 0 0 0 0 0 0 0 0 0 0 0 0 0 0 0 0 0 0.25 0"/>
<feBlend mode="normal" in2="BackgroundImageFix" result="effect1_dropShadow_366_2"/>
<feBlend mode="normal" in="SourceGraphic" in2="effect1_dropShadow_366_2" result="shape"/>
</filter>
<radialGradient id="paint0_radial_366_2" cx="0" cy="0" r="1" gradientUnits="userSpaceOnUse" gradientTransform="translate(188 -185.5) rotate(36.8389) scale(1295.1 1267.18)">
<stop stop-color="#F9BF3D"/>
<stop offset="1" stop-color="#FFAE28"/>
</radialGradient>
<clipPath id="clip0_366_2">
<rect width="1329" height="595" fill="white"/>
</clipPath>
</defs>
</svg>
