<svg width="1328" height="599" viewBox="0 0 1328 599" fill="none" xmlns="http://www.w3.org/2000/svg">
<g clip-path="url(#clip0_366_2)">
<rect width="1328" height="599" fill="white"/>
<g filter="url(#filter0_d_366_2)">
<rect width="1329" height="599" fill="url(#paint0_radial_366_2)"/>
</g>
<g style="mix-blend-mode:soft-light" opacity="0.25" clip-path="url(#clip1_366_2)">
<mask id="mask0_366_2" style="mask-type:luminance" maskUnits="userSpaceOnUse" x="1" y="0" width="1328" height="599">
<path d="M1329 0H1V599H1329V0Z" fill="white"/>
</mask>
<g mask="url(#mask0_366_2)">
<path d="M133.387 1071.26C227.719 1024.45 275.092 911.375 314.861 805.279C349.791 712.094 353.536 608.554 346.242 503.409C339.303 403.394 308.831 309.429 273.82 213.677C230.879 96.2344 204.556 -32.8345 118.511 -119.425C21.1882 -217.366 -106.431 -306.084 -228.824 -292.155C-350.861 -278.267 -424.577 -151.736 -498.227 -49.237C-560.266 37.1037 -600.444 138.458 -618.745 250.503C-635.804 354.94 -616.242 461.274 -599.319 569.683C-579.819 694.593 -593.453 837.136 -512.214 932.932C-430.568 1029.21 -300.827 1030.59 -187.934 1054.78C-78.8555 1078.15 37.6171 1118.79 133.387 1071.26Z" fill="black"/>
<path d="M1675.62 289.145C1638.17 194.287 1530.37 141.396 1435.88 85.7649C1356.38 38.9598 1267.42 12.5081 1172.8 -6.89796C1075.24 -26.9055 973.866 -60.6146 876.966 -28.8567C779.836 2.97623 718.081 85.9533 659.218 161.422C603.567 232.773 553.634 309.679 547.343 393.758C541.197 475.911 589.154 547.153 624.816 621.246C663.316 701.234 680.682 798.14 764.216 844.339C848.874 891.16 961.508 863.375 1064.28 864.291C1179.68 865.319 1299.24 897.621 1404.26 850.045C1514.88 799.929 1591.9 703.264 1640.23 603.371C1688.86 502.849 1714.8 388.37 1675.62 289.145Z" fill="black"/>
</g>
</g>
<g style="mix-blend-mode:soft-light" opacity="0.35">
<path d="M1101.98 123.756C1091.24 140.886 1082.21 159.039 1075.04 177.949C1071.81 186.888 1069.12 195.826 1066.71 205.034C1049.82 157.975 971.886 165.726 939.644 151.181C939.847 242.666 1035.05 210.788 1054.84 224.548C978.227 218.221 950.463 269.98 912.877 286.574C996.877 328.883 1048.21 287.899 1067.59 236.429C1064.65 256.465 1050.29 369.635 1129.59 367.295C1132.15 320.341 1119.62 273.8 1093.84 234.476L1095.46 234.473C1129.38 274.998 1182 321.166 1237.68 285.856C1210.22 257.462 1174.78 238.093 1136.05 230.323C1179.09 231.852 1208.06 235.307 1237.44 177.59C1193.39 174.214 1149.3 183.715 1110.55 204.937C1123.23 183.255 1142.37 150.733 1156.12 123.636L1101.98 123.756ZM939.764 205.314C833.987 229.637 804.684 320.105 804.91 422.145C805.209 557.478 926.435 665.477 1076.11 665.146C1208.47 664.854 1346.61 587.679 1346.18 393.883C1346 312.683 1314.15 231.554 1237.5 204.656C1232.37 216.869 1222.68 226.6 1210.49 231.783C1225.12 236.893 1249.01 269.32 1264.74 285.796C1256.4 307.739 1216.11 327.045 1147.33 313.122C1151.53 340.021 1151.59 367.405 1147.51 394.322C1123.01 394.816 1099.03 387.122 1079.39 372.458C1059.75 357.794 1045.56 336.998 1039.07 313.361C973.926 354.105 883.956 305.043 885.81 286.633C909.592 270.07 939.834 236.982 966.89 232.321C955.701 225.769 946.365 216.474 939.764 205.314Z" fill="white"/>
</g>
<path d="M74.3408 163.797H87.9834L108.071 221.214L128.159 163.797H141.802L113.55 242H102.593L74.3408 163.797ZM66.9824 163.797H80.5713L83.042 219.764V242H66.9824V163.797ZM135.571 163.797H149.214V242H133.101V219.764L135.571 163.797ZM189.121 243.074C184.609 243.074 180.563 242.358 176.982 240.926C173.402 239.458 170.358 237.435 167.852 234.856C165.381 232.278 163.483 229.288 162.158 225.887C160.833 222.449 160.171 218.797 160.171 214.93V212.781C160.171 208.377 160.798 204.349 162.051 200.696C163.304 197.044 165.094 193.875 167.422 191.189C169.785 188.504 172.65 186.445 176.016 185.013C179.382 183.545 183.177 182.811 187.402 182.811C191.52 182.811 195.173 183.491 198.359 184.852C201.546 186.212 204.214 188.146 206.362 190.652C208.547 193.159 210.194 196.167 211.304 199.676C212.414 203.149 212.969 207.016 212.969 211.277V217.723H166.777V207.41H197.769V206.229C197.769 204.08 197.375 202.164 196.587 200.481C195.835 198.763 194.689 197.402 193.149 196.399C191.61 195.397 189.64 194.896 187.241 194.896C185.2 194.896 183.446 195.343 181.978 196.238C180.509 197.133 179.31 198.387 178.379 199.998C177.484 201.609 176.803 203.507 176.338 205.691C175.908 207.84 175.693 210.203 175.693 212.781V214.93C175.693 217.257 176.016 219.406 176.66 221.375C177.34 223.344 178.289 225.045 179.507 226.478C180.76 227.91 182.264 229.02 184.019 229.808C185.809 230.595 187.832 230.989 190.088 230.989C192.881 230.989 195.477 230.452 197.876 229.378C200.311 228.268 202.406 226.603 204.16 224.383L211.68 232.547C210.462 234.301 208.797 235.984 206.685 237.596C204.608 239.207 202.101 240.532 199.165 241.57C196.229 242.573 192.881 243.074 189.121 243.074ZM250.728 183.885V242H235.205V183.885H250.728ZM269.419 183.885V195.862H216.782V183.885H269.419ZM273.018 213.533V212.405C273.018 208.144 273.626 204.223 274.844 200.643C276.061 197.026 277.834 193.893 280.161 191.243C282.489 188.593 285.353 186.535 288.755 185.066C292.157 183.562 296.06 182.811 300.464 182.811C304.868 182.811 308.789 183.562 312.227 185.066C315.664 186.535 318.547 188.593 320.874 191.243C323.237 193.893 325.028 197.026 326.245 200.643C327.463 204.223 328.071 208.144 328.071 212.405V213.533C328.071 217.758 327.463 221.679 326.245 225.296C325.028 228.877 323.237 232.01 320.874 234.695C318.547 237.345 315.682 239.404 312.28 240.872C308.879 242.34 304.976 243.074 300.571 243.074C296.167 243.074 292.246 242.34 288.809 240.872C285.407 239.404 282.524 237.345 280.161 234.695C277.834 232.01 276.061 228.877 274.844 225.296C273.626 221.679 273.018 217.758 273.018 213.533ZM288.486 212.405V213.533C288.486 215.968 288.701 218.242 289.131 220.354C289.561 222.467 290.241 224.329 291.172 225.94C292.139 227.516 293.392 228.751 294.932 229.646C296.471 230.542 298.351 230.989 300.571 230.989C302.72 230.989 304.564 230.542 306.104 229.646C307.643 228.751 308.879 227.516 309.81 225.94C310.741 224.329 311.421 222.467 311.851 220.354C312.316 218.242 312.549 215.968 312.549 213.533V212.405C312.549 210.042 312.316 207.822 311.851 205.745C311.421 203.632 310.723 201.771 309.756 200.159C308.825 198.512 307.59 197.223 306.05 196.292C304.51 195.361 302.648 194.896 300.464 194.896C298.28 194.896 296.418 195.361 294.878 196.292C293.374 197.223 292.139 198.512 291.172 200.159C290.241 201.771 289.561 203.632 289.131 205.745C288.701 207.822 288.486 210.042 288.486 212.405ZM344.185 183.885H359.653L359.17 203.328C359.027 209.559 358.311 214.912 357.021 219.388C355.732 223.864 354.014 227.623 351.865 230.667C349.717 233.711 347.264 236.146 344.507 237.972C341.785 239.762 338.921 241.105 335.913 242H333.013L332.852 230.076L334.463 229.915C336.289 228.017 337.793 226.173 338.975 224.383C340.156 222.557 341.069 220.641 341.714 218.636C342.358 216.631 342.824 214.393 343.11 211.922C343.433 209.451 343.63 206.587 343.701 203.328L344.185 183.885ZM348.374 183.885H386.885V242H371.47V196.292H348.374V183.885ZM329.468 229.915H395.21V259.456H379.741V242H345.312V259.456H329.468V229.915ZM469.6 183.885V196.023H441.455V183.885H469.6ZM445.913 183.885V242H430.444V183.885H445.913ZM480.879 183.885V242H465.356V183.885H480.879ZM490.332 213.533V212.405C490.332 208.144 490.941 204.223 492.158 200.643C493.376 197.026 495.148 193.893 497.476 191.243C499.803 188.593 502.668 186.535 506.069 185.066C509.471 183.562 513.374 182.811 517.778 182.811C522.183 182.811 526.104 183.562 529.541 185.066C532.979 186.535 535.861 188.593 538.188 191.243C540.552 193.893 542.342 197.026 543.56 200.643C544.777 204.223 545.386 208.144 545.386 212.405V213.533C545.386 217.758 544.777 221.679 543.56 225.296C542.342 228.877 540.552 232.01 538.188 234.695C535.861 237.345 532.996 239.404 529.595 240.872C526.193 242.34 522.29 243.074 517.886 243.074C513.481 243.074 509.561 242.34 506.123 240.872C502.721 239.404 499.839 237.345 497.476 234.695C495.148 232.01 493.376 228.877 492.158 225.296C490.941 221.679 490.332 217.758 490.332 213.533ZM505.801 212.405V213.533C505.801 215.968 506.016 218.242 506.445 220.354C506.875 222.467 507.555 224.329 508.486 225.94C509.453 227.516 510.706 228.751 512.246 229.646C513.786 230.542 515.666 230.989 517.886 230.989C520.034 230.989 521.878 230.542 523.418 229.646C524.958 228.751 526.193 227.516 527.124 225.94C528.055 224.329 528.735 222.467 529.165 220.354C529.631 218.242 529.863 215.968 529.863 213.533V212.405C529.863 210.042 529.631 207.822 529.165 205.745C528.735 203.632 528.037 201.771 527.07 200.159C526.139 198.512 524.904 197.223 523.364 196.292C521.825 195.361 519.963 194.896 517.778 194.896C515.594 194.896 513.732 195.361 512.192 196.292C510.688 197.223 509.453 198.512 508.486 200.159C507.555 201.771 506.875 203.632 506.445 205.745C506.016 207.822 505.801 210.042 505.801 212.405ZM590.234 224.222L605.488 183.885H618.11L595.444 242H585.024L562.466 183.885H575.088L590.234 224.222ZM571.382 183.885V242H555.913V183.885H571.382ZM609.463 242V183.885H624.932V242H609.463ZM653.882 220.408L673.379 183.885H688.848V242H673.379V205.423L653.882 242H638.413V183.885H653.882V220.408ZM711.245 183.885H726.714L726.23 203.328C726.087 209.559 725.371 214.912 724.082 219.388C722.793 223.864 721.074 227.623 718.926 230.667C716.777 233.711 714.325 236.146 711.567 237.972C708.846 239.762 705.981 241.105 702.974 242H700.073L699.912 230.076L701.523 229.915C703.35 228.017 704.854 226.173 706.035 224.383C707.217 222.557 708.13 220.641 708.774 218.636C709.419 216.631 709.884 214.393 710.171 211.922C710.493 209.451 710.69 206.587 710.762 203.328L711.245 183.885ZM715.435 183.885H753.945V242H738.53V196.292H715.435V183.885ZM696.528 229.915H762.271V259.456H746.802V242H712.373V259.456H696.528V229.915ZM767.695 213.533V212.405C767.695 208.144 768.304 204.223 769.521 200.643C770.739 197.026 772.511 193.893 774.839 191.243C777.166 188.593 780.031 186.535 783.433 185.066C786.834 183.562 790.737 182.811 795.142 182.811C799.546 182.811 803.467 183.562 806.904 185.066C810.342 186.535 813.224 188.593 815.552 191.243C817.915 193.893 819.705 197.026 820.923 200.643C822.14 204.223 822.749 208.144 822.749 212.405V213.533C822.749 217.758 822.14 221.679 820.923 225.296C819.705 228.877 817.915 232.01 815.552 234.695C813.224 237.345 810.36 239.404 806.958 240.872C803.556 242.34 799.653 243.074 795.249 243.074C790.845 243.074 786.924 242.34 783.486 240.872C780.085 239.404 777.202 237.345 774.839 234.695C772.511 232.01 770.739 228.877 769.521 225.296C768.304 221.679 767.695 217.758 767.695 213.533ZM783.164 212.405V213.533C783.164 215.968 783.379 218.242 783.809 220.354C784.238 222.467 784.919 224.329 785.85 225.94C786.816 227.516 788.07 228.751 789.609 229.646C791.149 230.542 793.029 230.989 795.249 230.989C797.397 230.989 799.242 230.542 800.781 229.646C802.321 228.751 803.556 227.516 804.487 225.94C805.418 224.329 806.099 222.467 806.528 220.354C806.994 218.242 807.227 215.968 807.227 213.533V212.405C807.227 210.042 806.994 207.822 806.528 205.745C806.099 203.632 805.4 201.771 804.434 200.159C803.503 198.512 802.267 197.223 800.728 196.292C799.188 195.361 797.326 194.896 795.142 194.896C792.957 194.896 791.095 195.361 789.556 196.292C788.052 197.223 786.816 198.512 785.85 200.159C784.919 201.771 784.238 203.632 783.809 205.745C783.379 207.822 783.164 210.042 783.164 212.405ZM847.725 195.057V264.344H832.256V183.885H846.597L847.725 195.057ZM884.517 212.298V213.426C884.517 217.651 884.015 221.572 883.013 225.188C882.046 228.805 880.614 231.956 878.716 234.642C876.818 237.291 874.455 239.368 871.626 240.872C868.833 242.34 865.61 243.074 861.958 243.074C858.413 243.074 855.334 242.358 852.72 240.926C850.106 239.493 847.904 237.488 846.113 234.91C844.359 232.296 842.944 229.271 841.87 225.833C840.796 222.396 839.972 218.707 839.399 214.769V211.814C839.972 207.589 840.796 203.722 841.87 200.213C842.944 196.668 844.359 193.606 846.113 191.028C847.904 188.414 850.088 186.391 852.666 184.959C855.28 183.527 858.341 182.811 861.851 182.811C865.539 182.811 868.779 183.509 871.572 184.905C874.401 186.302 876.764 188.307 878.662 190.921C880.596 193.535 882.046 196.65 883.013 200.267C884.015 203.883 884.517 207.894 884.517 212.298ZM868.994 213.426V212.298C868.994 209.827 868.779 207.553 868.35 205.477C867.956 203.364 867.311 201.52 866.416 199.944C865.557 198.369 864.411 197.151 862.979 196.292C861.582 195.397 859.881 194.949 857.876 194.949C855.763 194.949 853.955 195.289 852.451 195.97C850.983 196.65 849.784 197.635 848.853 198.924C847.922 200.213 847.223 201.753 846.758 203.543C846.292 205.333 846.006 207.356 845.898 209.612V217.078C846.077 219.728 846.579 222.109 847.402 224.222C848.226 226.299 849.497 227.946 851.216 229.163C852.935 230.381 855.19 230.989 857.983 230.989C860.024 230.989 861.743 230.542 863.14 229.646C864.536 228.715 865.664 227.444 866.523 225.833C867.419 224.222 868.045 222.36 868.403 220.247C868.797 218.134 868.994 215.861 868.994 213.426ZM925.498 228.895V203.006C925.498 201.144 925.194 199.55 924.585 198.226C923.976 196.865 923.027 195.809 921.738 195.057C920.485 194.305 918.856 193.929 916.851 193.929C915.132 193.929 913.646 194.233 912.393 194.842C911.139 195.415 910.173 196.256 909.492 197.366C908.812 198.44 908.472 199.712 908.472 201.18H893.003C893.003 198.709 893.576 196.364 894.722 194.144C895.868 191.924 897.533 189.972 899.717 188.289C901.901 186.57 904.497 185.228 907.505 184.261C910.549 183.294 913.95 182.811 917.71 182.811C922.222 182.811 926.232 183.562 929.741 185.066C933.25 186.57 936.007 188.826 938.013 191.834C940.054 194.842 941.074 198.602 941.074 203.113V227.981C941.074 231.168 941.271 233.782 941.665 235.823C942.059 237.828 942.632 239.583 943.384 241.087V242H927.754C927.002 240.424 926.429 238.455 926.035 236.092C925.677 233.693 925.498 231.294 925.498 228.895ZM927.539 206.604L927.646 215.359H918.999C916.958 215.359 915.186 215.592 913.682 216.058C912.178 216.523 910.942 217.186 909.976 218.045C909.009 218.868 908.293 219.835 907.827 220.945C907.397 222.055 907.183 223.273 907.183 224.598C907.183 225.923 907.487 227.122 908.096 228.196C908.704 229.235 909.582 230.058 910.728 230.667C911.873 231.24 913.216 231.526 914.756 231.526C917.083 231.526 919.106 231.061 920.825 230.13C922.544 229.199 923.869 228.053 924.8 226.692C925.767 225.332 926.268 224.043 926.304 222.825L930.386 229.378C929.813 230.846 929.025 232.368 928.022 233.943C927.056 235.519 925.82 237.005 924.316 238.401C922.812 239.762 921.004 240.89 918.892 241.785C916.779 242.645 914.272 243.074 911.372 243.074C907.684 243.074 904.336 242.34 901.328 240.872C898.356 239.368 895.993 237.309 894.238 234.695C892.52 232.046 891.66 229.038 891.66 225.672C891.66 222.628 892.233 219.925 893.379 217.562C894.525 215.198 896.208 213.211 898.428 211.6C900.684 209.952 903.494 208.717 906.86 207.894C910.226 207.034 914.129 206.604 918.569 206.604H927.539Z" fill="white"/>
</g>
<defs>
<filter id="filter0_d_366_2" x="-72" y="-72" width="1473" height="743" filterUnits="userSpaceOnUse" color-interpolation-filters="sRGB">
<feFlood flood-opacity="0" result="BackgroundImageFix"/>
<feColorMatrix in="SourceAlpha" type="matrix" values="0 0 0 0 0 0 0 0 0 0 0 0 0 0 0 0 0 0 127 0" result="hardAlpha"/>
<feOffset/>
<feGaussianBlur stdDeviation="36"/>
<feComposite in2="hardAlpha" operator="out"/>
<feColorMatrix type="matrix" values="0 0 0 0 0 0 0 0 0 0 0 0 0 0 0 0 0 0 0.25 0"/>
<feBlend mode="normal" in2="BackgroundImageFix" result="effect1_dropShadow_366_2"/>
<feBlend mode="normal" in="SourceGraphic" in2="effect1_dropShadow_366_2" result="shape"/>
</filter>
<radialGradient id="paint0_radial_366_2" cx="0" cy="0" r="1" gradientUnits="userSpaceOnUse" gradientTransform="translate(1381 -152) rotate(151.632) scale(1734.26 1929.32)">
<stop stop-color="#ED1C1C"/>
<stop offset="1" stop-color="#8E1E62"/>
</radialGradient>
<clipPath id="clip0_366_2">
<rect width="1328" height="599" fill="white"/>
</clipPath>
<clipPath id="clip1_366_2">
<rect width="1328" height="599" fill="white" transform="translate(1)"/>
</clipPath>
</defs>
</svg>
