<svg width="1328" height="599" viewBox="0 0 1328 599" fill="none" xmlns="http://www.w3.org/2000/svg">
<g clip-path="url(#clip0_366_2)">
<rect width="1328" height="599" fill="white"/>
<g filter="url(#filter0_d_366_2)">
<rect x="-1" width="1329" height="599" fill="url(#paint0_radial_366_2)"/>
</g>
<g style="mix-blend-mode:soft-light" opacity="0.17" clip-path="url(#clip1_366_2)">
<mask id="mask0_366_2" style="mask-type:luminance" maskUnits="userSpaceOnUse" x="0" y="0" width="1328" height="599">
<path d="M1328 0H0V599H1328V0Z" fill="white"/>
</mask>
<g mask="url(#mask0_366_2)">
<path d="M1036.43 1186.32C1138.53 1212.13 1248.06 1157.06 1347.28 1102.35C1434.43 1054.29 1504.62 978.087 1567.48 893.483C1627.27 813.006 1665.24 721.816 1700.94 626.317C1744.72 509.185 1808.68 394.031 1799.66 272.293C1789.45 134.598 1750.23 -15.7995 1648.21 -84.8348C1546.48 -153.67 1408.19 -105.518 1285.57 -75.5762C1182.29 -50.3544 1085.85 0.491366 999.063 73.6869C918.172 141.913 863.861 235.401 806.196 328.747C739.754 436.303 636.677 535.698 636.065 661.302C635.451 787.536 733.09 872.983 803.1 964.789C870.745 1053.49 932.778 1160.12 1036.43 1186.32Z" fill="black"/>
</g>
</g>
<g style="mix-blend-mode:soft-light" opacity="0.35">
<path d="M321.451 482.966C276.208 445.99 247.329 389.761 247.329 326.766C247.329 295.113 255.257 265.554 268.252 238.884L237.165 207.825L48.3207 396.698C83.4282 424.331 79.8892 451.341 38.8077 477.672L291.1 729.936H414.741C430.653 729.936 443.563 742.847 443.563 758.758V787.58H308.569L308.258 787.892L307.946 787.58H97.9242V758.786C97.9242 742.875 110.835 729.964 126.746 729.964H250.387L12.3922 491.998C-34.6349 512.156 -57.8511 492.677 -56.8602 432.825C-55.7843 369.15 -28.8025 352.162 23.519 380.815L216.865 187.468L197.726 168.358C186.486 157.146 186.486 138.884 197.726 127.644L258.824 66.5458C270.064 55.3057 288.326 55.3057 299.566 66.5458L373.178 140.215C396.621 130.674 422.131 125.209 448.999 125.209C515.307 125.209 574.197 153.663 610.918 203.125C612.164 203.437 322.499 483.419 321.451 482.966ZM544.356 302.785C544.356 302.785 592.968 363.969 544.356 412.581C495.743 461.194 435.154 411.987 435.154 411.987L544.356 302.785Z" fill="black"/>
</g>
<path d="M646.866 213.641L666.095 163.797H683.443L656.642 226.854C655.711 229.002 654.636 231.061 653.419 233.03C652.237 234.964 650.823 236.701 649.176 238.24C647.529 239.744 645.559 240.944 643.268 241.839C640.976 242.698 638.237 243.128 635.05 243.128C634.262 243.128 633.295 243.11 632.149 243.074C631.004 243.038 630.09 242.985 629.41 242.913L629.303 230.345C629.732 230.452 630.413 230.524 631.344 230.56C632.275 230.56 632.955 230.56 633.385 230.56C635.497 230.56 637.162 230.255 638.38 229.646C639.597 229.038 640.564 228.178 641.28 227.068C642.032 225.923 642.695 224.58 643.268 223.04L646.866 213.641ZM634.137 163.797L651.969 202.522L656.964 220.301L644.986 220.516L616.842 163.797H634.137ZM721.471 224.222L736.725 183.885H749.347L726.681 242H716.261L693.702 183.885H706.324L721.471 224.222ZM702.618 183.885V242H687.149V183.885H702.618ZM740.699 242V183.885H756.168V242H740.699ZM809.503 207.356V219.388H779.962V207.356H809.503ZM785.118 183.885V242H769.649V183.885H785.118ZM819.977 183.885V242H804.454V183.885H819.977ZM842.696 201.126H859.562C864.861 201.126 869.373 202.003 873.097 203.758C876.856 205.477 879.721 207.876 881.69 210.955C883.696 214.035 884.698 217.597 884.698 221.644C884.698 224.58 884.125 227.301 882.979 229.808C881.869 232.278 880.24 234.427 878.092 236.253C875.943 238.079 873.312 239.493 870.196 240.496C867.081 241.499 863.536 242 859.562 242H833.028V183.885H848.551V229.969H859.562C861.889 229.969 863.751 229.593 865.147 228.841C866.58 228.053 867.618 227.033 868.263 225.779C868.943 224.526 869.283 223.165 869.283 221.697C869.283 220.158 868.943 218.761 868.263 217.508C867.618 216.219 866.58 215.18 865.147 214.393C863.751 213.605 861.889 213.211 859.562 213.211H842.696V201.126ZM909.513 183.885V242H894.044V183.885H909.513ZM938.517 220.408L958.014 183.885H973.482V242H958.014V205.423L938.517 242H923.048V183.885H938.517V220.408ZM956.241 160.521H967.252C967.252 163.6 966.482 166.339 964.942 168.738C963.438 171.102 961.29 172.964 958.497 174.324C955.704 175.649 952.41 176.312 948.614 176.312C942.849 176.312 938.284 174.843 934.918 171.907C931.588 168.971 929.923 165.175 929.923 160.521H940.88C940.88 162.382 941.453 164.048 942.599 165.516C943.78 166.984 945.785 167.718 948.614 167.718C951.407 167.718 953.377 166.984 954.522 165.516C955.668 164.048 956.241 162.382 956.241 160.521ZM1010.33 213.533V212.405C1010.33 208.144 1010.94 204.223 1012.15 200.643C1013.37 197.026 1015.14 193.893 1017.47 191.243C1019.8 188.593 1022.66 186.535 1026.07 185.066C1029.47 183.562 1033.37 182.811 1037.77 182.811C1042.18 182.811 1046.1 183.562 1049.54 185.066C1052.97 186.535 1055.86 188.593 1058.18 191.243C1060.55 193.893 1062.34 197.026 1063.56 200.643C1064.77 204.223 1065.38 208.144 1065.38 212.405V213.533C1065.38 217.758 1064.77 221.679 1063.56 225.296C1062.34 228.877 1060.55 232.01 1058.18 234.695C1055.86 237.345 1052.99 239.404 1049.59 240.872C1046.19 242.34 1042.29 243.074 1037.88 243.074C1033.48 243.074 1029.56 242.34 1026.12 240.872C1022.72 239.404 1019.83 237.345 1017.47 234.695C1015.14 232.01 1013.37 228.877 1012.15 225.296C1010.94 221.679 1010.33 217.758 1010.33 213.533ZM1025.8 212.405V213.533C1025.8 215.968 1026.01 218.242 1026.44 220.354C1026.87 222.467 1027.55 224.329 1028.48 225.94C1029.45 227.516 1030.7 228.751 1032.24 229.646C1033.78 230.542 1035.66 230.989 1037.88 230.989C1040.03 230.989 1041.87 230.542 1043.41 229.646C1044.95 228.751 1046.19 227.516 1047.12 225.94C1048.05 224.329 1048.73 222.467 1049.16 220.354C1049.63 218.242 1049.86 215.968 1049.86 213.533V212.405C1049.86 210.042 1049.63 207.822 1049.16 205.745C1048.73 203.632 1048.03 201.771 1047.07 200.159C1046.14 198.512 1044.9 197.223 1043.36 196.292C1041.82 195.361 1039.96 194.896 1037.77 194.896C1035.59 194.896 1033.73 195.361 1032.19 196.292C1030.68 197.223 1029.45 198.512 1028.48 200.159C1027.55 201.771 1026.87 203.632 1026.44 205.745C1026.01 207.822 1025.8 210.042 1025.8 212.405ZM1145.63 213.318V214.446C1145.63 218.636 1145.16 222.485 1144.23 225.994C1143.33 229.467 1141.97 232.493 1140.15 235.071C1138.32 237.614 1136.08 239.583 1133.43 240.979C1130.78 242.376 1127.72 243.074 1124.25 243.074C1121.03 243.074 1118.23 242.465 1115.87 241.248C1113.54 239.995 1111.57 238.258 1109.96 236.038C1108.39 233.782 1107.1 231.168 1106.09 228.196C1105.13 225.188 1104.41 221.948 1103.95 218.475V209.183C1104.41 205.459 1105.13 202.003 1106.09 198.816C1107.06 195.594 1108.33 192.783 1109.91 190.384C1111.52 187.985 1113.49 186.123 1115.82 184.798C1118.14 183.473 1120.92 182.811 1124.14 182.811C1126.93 182.811 1129.46 183.294 1131.71 184.261C1134.01 185.228 1136.01 186.606 1137.73 188.396C1139.49 190.187 1140.94 192.353 1142.08 194.896C1143.26 197.402 1144.14 200.213 1144.71 203.328C1145.32 206.443 1145.63 209.773 1145.63 213.318ZM1130.1 214.446V213.318C1130.1 211.313 1129.98 209.397 1129.73 207.571C1129.51 205.709 1129.15 204.008 1128.65 202.469C1128.19 200.929 1127.56 199.604 1126.77 198.494C1125.99 197.348 1125.04 196.471 1123.93 195.862C1122.82 195.218 1121.55 194.896 1120.11 194.896C1117.61 194.896 1115.55 195.397 1113.94 196.399C1112.36 197.366 1111.18 198.763 1110.39 200.589C1109.64 202.379 1109.21 204.492 1109.1 206.927V220.784C1109.25 222.861 1109.69 224.669 1110.45 226.209C1111.23 227.713 1112.41 228.895 1113.99 229.754C1115.6 230.577 1117.68 230.989 1120.22 230.989C1122.05 230.989 1123.59 230.577 1124.84 229.754C1126.13 228.93 1127.15 227.767 1127.9 226.263C1128.69 224.759 1129.24 223.022 1129.57 221.053C1129.92 219.048 1130.1 216.845 1130.1 214.446ZM1072.53 214.446V213.318C1072.53 209.773 1072.83 206.443 1073.44 203.328C1074.05 200.213 1074.92 197.402 1076.07 194.896C1077.25 192.353 1078.7 190.187 1080.42 188.396C1082.14 186.606 1084.13 185.228 1086.38 184.261C1088.67 183.294 1091.22 182.811 1094.01 182.811C1097.2 182.811 1099.95 183.473 1102.28 184.798C1104.61 186.123 1106.56 187.985 1108.14 190.384C1109.71 192.783 1110.98 195.594 1111.95 198.816C1112.92 202.003 1113.65 205.459 1114.15 209.183V218.045C1113.65 221.626 1112.92 224.938 1111.95 227.981C1110.98 230.989 1109.69 233.639 1108.08 235.931C1106.51 238.187 1104.56 239.941 1102.23 241.194C1099.9 242.448 1097.12 243.074 1093.9 243.074C1090.46 243.074 1087.4 242.376 1084.72 240.979C1082.07 239.583 1079.83 237.614 1078 235.071C1076.21 232.493 1074.85 229.467 1073.92 225.994C1072.99 222.485 1072.53 218.636 1072.53 214.446ZM1087.99 213.318V214.446C1087.99 216.845 1088.16 219.048 1088.48 221.053C1088.84 223.022 1089.39 224.759 1090.14 226.263C1090.93 227.731 1091.95 228.877 1093.2 229.7C1094.46 230.524 1096 230.936 1097.82 230.936C1100.4 230.936 1102.48 230.506 1104.05 229.646C1105.67 228.787 1106.86 227.57 1107.65 225.994C1108.44 224.419 1108.87 222.539 1108.94 220.354V206.927C1108.87 204.492 1108.44 202.379 1107.65 200.589C1106.9 198.763 1105.74 197.366 1104.16 196.399C1102.59 195.397 1100.51 194.896 1097.93 194.896C1096.1 194.896 1094.55 195.379 1093.26 196.346C1092 197.312 1090.98 198.637 1090.2 200.32C1089.44 202.003 1088.89 203.973 1088.53 206.229C1088.17 208.449 1087.99 210.812 1087.99 213.318ZM1101.21 264.344V159.5H1116.73V264.344H1101.21ZM1170.76 220.408L1190.26 183.885H1205.73V242H1190.26V205.423L1170.76 242H1155.29V183.885H1170.76V220.408ZM1241.66 230.989C1243.56 230.989 1245.24 230.631 1246.71 229.915C1248.18 229.163 1249.32 228.125 1250.15 226.8C1251.01 225.439 1251.45 223.846 1251.49 222.02H1266.05C1266.01 226.102 1264.92 229.736 1262.77 232.923C1260.62 236.074 1257.74 238.562 1254.12 240.389C1250.51 242.179 1246.46 243.074 1241.98 243.074C1237.47 243.074 1233.53 242.322 1230.17 240.818C1226.84 239.314 1224.06 237.238 1221.84 234.588C1219.62 231.902 1217.96 228.787 1216.85 225.242C1215.74 221.661 1215.18 217.83 1215.18 213.748V212.19C1215.18 208.073 1215.74 204.241 1216.85 200.696C1217.96 197.116 1219.62 194 1221.84 191.351C1224.06 188.665 1226.84 186.57 1230.17 185.066C1233.5 183.562 1237.4 182.811 1241.88 182.811C1246.64 182.811 1250.81 183.724 1254.39 185.55C1258.01 187.376 1260.84 189.99 1262.88 193.392C1264.95 196.757 1266.01 200.75 1266.05 205.369H1251.49C1251.45 203.436 1251.04 201.681 1250.25 200.105C1249.5 198.53 1248.39 197.277 1246.92 196.346C1245.49 195.379 1243.72 194.896 1241.61 194.896C1239.35 194.896 1237.51 195.379 1236.08 196.346C1234.64 197.277 1233.53 198.566 1232.75 200.213C1231.96 201.824 1231.4 203.668 1231.08 205.745C1230.79 207.786 1230.65 209.935 1230.65 212.19V213.748C1230.65 216.004 1230.79 218.17 1231.08 220.247C1231.37 222.324 1231.9 224.168 1232.69 225.779C1233.51 227.391 1234.64 228.662 1236.08 229.593C1237.51 230.524 1239.37 230.989 1241.66 230.989Z" fill="white"/>
</g>
<defs>
<filter id="filter0_d_366_2" x="-73" y="-72" width="1473" height="743" filterUnits="userSpaceOnUse" color-interpolation-filters="sRGB">
<feFlood flood-opacity="0" result="BackgroundImageFix"/>
<feColorMatrix in="SourceAlpha" type="matrix" values="0 0 0 0 0 0 0 0 0 0 0 0 0 0 0 0 0 0 127 0" result="hardAlpha"/>
<feOffset/>
<feGaussianBlur stdDeviation="36"/>
<feComposite in2="hardAlpha" operator="out"/>
<feColorMatrix type="matrix" values="0 0 0 0 0 0 0 0 0 0 0 0 0 0 0 0 0 0 0.25 0"/>
<feBlend mode="normal" in2="BackgroundImageFix" result="effect1_dropShadow_366_2"/>
<feBlend mode="normal" in="SourceGraphic" in2="effect1_dropShadow_366_2" result="shape"/>
</filter>
<radialGradient id="paint0_radial_366_2" cx="0" cy="0" r="1" gradientUnits="userSpaceOnUse" gradientTransform="translate(1406.5 94.4999) rotate(167.416) scale(1516.94 1516.94)">
<stop stop-color="#134E5E"/>
<stop offset="1" stop-color="#71B280"/>
</radialGradient>
<clipPath id="clip0_366_2">
<rect width="1328" height="599" fill="white"/>
</clipPath>
<clipPath id="clip1_366_2">
<rect width="1328" height="599" fill="white"/>
</clipPath>
</defs>
</svg>
