<svg width="1440" height="2880" viewBox="0 0 1440 2880" fill="none" xmlns="http://www.w3.org/2000/svg">
<g clip-path="url(#clip0_423_2)">
<rect width="1440" height="2880" fill="url(#paint0_linear_423_2)"/>
<circle cx="720" cy="-161" r="3167" fill="url(#paint1_radial_423_2)"/>
<g style="mix-blend-mode:soft-light" opacity="0.35">
<path d="M1136.07 783.091H875.967C876.647 721.89 881.407 669.189 890.247 624.988C899.767 580.107 915.748 539.647 938.188 503.606C961.308 467.565 991.909 431.865 1029.99 396.504C1061.95 367.943 1089.83 340.743 1113.63 314.902C1137.43 289.062 1156.13 262.541 1169.73 235.341C1183.33 207.46 1190.13 176.52 1190.13 142.519C1190.13 103.078 1184.01 70.4377 1171.77 44.5972C1160.21 18.0767 1142.53 -1.98372 1118.73 -15.584C1095.61 -29.1842 1066.37 -35.9844 1031.01 -35.9844C1001.77 -35.9844 974.569 -29.5243 949.408 -16.604C924.248 -4.36377 903.507 14.6766 887.187 40.5171C871.547 66.3576 863.387 100.358 862.707 142.519H566.901C568.941 49.3573 590.361 -27.4842 631.162 -88.0054C672.643 -149.207 728.064 -194.427 797.425 -223.668C866.787 -253.589 944.648 -268.549 1031.01 -268.549C1126.21 -268.549 1207.81 -252.909 1275.81 -221.628C1343.82 -191.027 1395.84 -145.806 1431.88 -85.9653C1467.92 -26.8042 1485.94 45.2772 1485.94 130.279C1485.94 189.44 1474.38 242.141 1451.26 288.382C1428.14 333.943 1397.88 376.444 1360.48 415.884C1323.08 455.325 1281.93 496.126 1237.05 538.287C1198.29 572.967 1171.77 609.348 1157.49 647.429C1143.89 685.509 1136.75 730.73 1136.07 783.091ZM845.366 1098.28C845.366 1054.76 860.326 1018.72 890.247 990.155C920.168 960.915 960.288 946.294 1010.61 946.294C1060.25 946.294 1100.03 960.915 1129.95 990.155C1160.55 1018.72 1175.85 1054.76 1175.85 1098.28C1175.85 1140.44 1160.55 1176.14 1129.95 1205.38C1100.03 1234.62 1060.25 1249.24 1010.61 1249.24C960.288 1249.24 920.168 1234.62 890.247 1205.38C860.326 1176.14 845.366 1140.44 845.366 1098.28Z" fill="black"/>
</g>
<g style="mix-blend-mode:soft-light" opacity="0.35">
<path d="M185.938 368.493H117.457C117.636 352.38 118.889 338.505 121.217 326.867C123.723 315.051 127.931 304.398 133.839 294.909C139.926 285.42 147.983 276.021 158.009 266.711C166.424 259.191 173.764 252.03 180.03 245.227C186.297 238.423 191.22 231.441 194.801 224.279C198.382 216.939 200.172 208.793 200.172 199.841C200.172 189.457 198.561 180.863 195.338 174.06C192.294 167.077 187.639 161.796 181.373 158.215C175.286 154.634 167.587 152.844 158.277 152.844C150.579 152.844 143.417 154.545 136.793 157.946C130.169 161.169 124.708 166.182 120.411 172.985C116.293 179.789 114.145 188.741 113.966 199.841H36.085C36.6221 175.313 42.2617 155.082 53.0039 139.147C63.9251 123.034 78.5166 111.128 96.7783 103.43C115.04 95.5521 135.54 91.6133 158.277 91.6133C183.342 91.6133 204.827 95.7311 222.73 103.967C240.634 112.023 254.33 123.929 263.819 139.685C273.308 155.261 278.053 174.239 278.053 196.618C278.053 212.194 275.009 226.07 268.922 238.244C262.835 250.24 254.868 261.429 245.021 271.813C235.174 282.198 224.342 292.94 212.525 304.04C202.32 313.171 195.338 322.749 191.578 332.775C187.997 342.801 186.118 354.707 185.938 368.493ZM109.4 451.477C109.4 440.018 113.339 430.529 121.217 423.01C129.094 415.311 139.658 411.462 152.906 411.462C165.976 411.462 176.45 415.311 184.327 423.01C192.384 430.529 196.412 440.018 196.412 451.477C196.412 462.577 192.384 471.976 184.327 479.675C176.45 487.373 165.976 491.223 152.906 491.223C139.658 491.223 129.094 487.373 121.217 479.675C113.339 471.976 109.4 462.577 109.4 451.477Z" fill="black"/>
</g>
<g style="mix-blend-mode:soft-light" opacity="0.35">
<path d="M594.938 564.493H526.457C526.636 548.38 527.889 534.505 530.217 522.867C532.723 511.051 536.931 500.398 542.839 490.909C548.926 481.42 556.983 472.021 567.009 462.711C575.424 455.191 582.764 448.03 589.03 441.227C595.297 434.423 600.22 427.441 603.801 420.279C607.382 412.939 609.172 404.793 609.172 395.841C609.172 385.457 607.561 376.863 604.338 370.06C601.294 363.077 596.639 357.796 590.373 354.215C584.286 350.634 576.587 348.844 567.277 348.844C559.579 348.844 552.417 350.545 545.793 353.946C539.169 357.169 533.708 362.182 529.411 368.985C525.293 375.789 523.145 384.741 522.966 395.841H445.085C445.622 371.313 451.262 351.082 462.004 335.147C472.925 319.034 487.517 307.128 505.778 299.43C524.04 291.552 544.54 287.613 567.277 287.613C592.342 287.613 613.827 291.731 631.73 299.967C649.634 308.023 663.33 319.929 672.819 335.685C682.308 351.261 687.053 370.239 687.053 392.618C687.053 408.194 684.009 422.07 677.922 434.244C671.835 446.24 663.868 457.429 654.021 467.813C644.174 478.198 633.342 488.94 621.525 500.04C611.32 509.171 604.338 518.749 600.578 528.775C596.997 538.801 595.118 550.707 594.938 564.493ZM518.4 647.477C518.4 636.018 522.339 626.529 530.217 619.01C538.094 611.311 548.658 607.462 561.906 607.462C574.976 607.462 585.45 611.311 593.327 619.01C601.384 626.529 605.412 636.018 605.412 647.477C605.412 658.577 601.384 667.976 593.327 675.675C585.45 683.373 574.976 687.223 561.906 687.223C548.658 687.223 538.094 683.373 530.217 675.675C522.339 667.976 518.4 658.577 518.4 647.477Z" fill="black"/>
</g>
<g style="mix-blend-mode:soft-light" opacity="0.35">
<path d="M184.938 940.493H116.457C116.636 924.38 117.889 910.505 120.217 898.867C122.723 887.051 126.931 876.398 132.839 866.909C138.926 857.42 146.983 848.021 157.009 838.711C165.424 831.191 172.764 824.03 179.03 817.227C185.297 810.423 190.22 803.441 193.801 796.279C197.382 788.939 199.172 780.793 199.172 771.841C199.172 761.457 197.561 752.863 194.338 746.06C191.294 739.077 186.639 733.796 180.373 730.215C174.286 726.634 166.587 724.844 157.277 724.844C149.579 724.844 142.417 726.545 135.793 729.946C129.169 733.169 123.708 738.182 119.411 744.985C115.293 751.789 113.145 760.741 112.966 771.841H35.085C35.6221 747.313 41.2617 727.082 52.0039 711.147C62.9251 695.034 77.5166 683.128 95.7783 675.43C114.04 667.552 134.54 663.613 157.277 663.613C182.342 663.613 203.827 667.731 221.73 675.967C239.634 684.023 253.33 695.929 262.819 711.685C272.308 727.261 277.053 746.239 277.053 768.618C277.053 784.194 274.009 798.07 267.922 810.244C261.835 822.24 253.868 833.429 244.021 843.813C234.174 854.198 223.342 864.94 211.525 876.04C201.32 885.171 194.338 894.749 190.578 904.775C186.997 914.801 185.118 926.707 184.938 940.493ZM108.4 1023.48C108.4 1012.02 112.339 1002.53 120.217 995.01C128.094 987.311 138.658 983.462 151.906 983.462C164.976 983.462 175.45 987.311 183.327 995.01C191.384 1002.53 195.412 1012.02 195.412 1023.48C195.412 1034.58 191.384 1043.98 183.327 1051.67C175.45 1059.37 164.976 1063.22 151.906 1063.22C138.658 1063.22 128.094 1059.37 120.217 1051.67C112.339 1043.98 108.4 1034.58 108.4 1023.48Z" fill="black"/>
</g>
<g style="mix-blend-mode:soft-light" opacity="0.35">
<path d="M1432.94 870.493H1364.46C1364.64 854.38 1365.89 840.505 1368.22 828.867C1370.72 817.051 1374.93 806.398 1380.84 796.909C1386.93 787.42 1394.98 778.021 1405.01 768.711C1413.42 761.191 1420.76 754.03 1427.03 747.227C1433.3 740.423 1438.22 733.441 1441.8 726.279C1445.38 718.939 1447.17 710.793 1447.17 701.841C1447.17 691.457 1445.56 682.863 1442.34 676.06C1439.29 669.077 1434.64 663.796 1428.37 660.215C1422.29 656.634 1414.59 654.844 1405.28 654.844C1397.58 654.844 1390.42 656.545 1383.79 659.946C1377.17 663.169 1371.71 668.182 1367.41 674.985C1363.29 681.789 1361.14 690.741 1360.97 701.841H1283.08C1283.62 677.313 1289.26 657.082 1300 641.147C1310.93 625.034 1325.52 613.128 1343.78 605.43C1362.04 597.552 1382.54 593.613 1405.28 593.613C1430.34 593.613 1451.83 597.731 1469.73 605.967C1487.63 614.023 1501.33 625.929 1510.82 641.685C1520.31 657.261 1525.05 676.239 1525.05 698.618C1525.05 714.194 1522.01 728.07 1515.92 740.244C1509.83 752.24 1501.87 763.429 1492.02 773.813C1482.17 784.198 1471.34 794.94 1459.53 806.04C1449.32 815.171 1442.34 824.749 1438.58 834.775C1435 844.801 1433.12 856.707 1432.94 870.493ZM1356.4 953.477C1356.4 942.018 1360.34 932.529 1368.22 925.01C1376.09 917.311 1386.66 913.462 1399.91 913.462C1412.98 913.462 1423.45 917.311 1431.33 925.01C1439.38 932.529 1443.41 942.018 1443.41 953.477C1443.41 964.577 1439.38 973.976 1431.33 981.675C1423.45 989.373 1412.98 993.223 1399.91 993.223C1386.66 993.223 1376.09 989.373 1368.22 981.675C1360.34 973.976 1356.4 964.577 1356.4 953.477Z" fill="black"/>
</g>
<g filter="url(#filter0_d_423_2)">
<rect x="55" y="2943" width="1329" height="864" rx="100" fill="white"/>
</g>
</g>
<defs>
<filter id="filter0_d_423_2" x="-17" y="2871" width="1473" height="1008" filterUnits="userSpaceOnUse" color-interpolation-filters="sRGB">
<feFlood flood-opacity="0" result="BackgroundImageFix"/>
<feColorMatrix in="SourceAlpha" type="matrix" values="0 0 0 0 0 0 0 0 0 0 0 0 0 0 0 0 0 0 127 0" result="hardAlpha"/>
<feOffset/>
<feGaussianBlur stdDeviation="36"/>
<feComposite in2="hardAlpha" operator="out"/>
<feColorMatrix type="matrix" values="0 0 0 0 0 0 0 0 0 0 0 0 0 0 0 0 0 0 0.25 0"/>
<feBlend mode="normal" in2="BackgroundImageFix" result="effect1_dropShadow_423_2"/>
<feBlend mode="normal" in="SourceGraphic" in2="effect1_dropShadow_423_2" result="shape"/>
</filter>
<linearGradient id="paint0_linear_423_2" x1="720" y1="0" x2="720" y2="2880" gradientUnits="userSpaceOnUse">
<stop stop-color="white"/>
<stop offset="1" stop-color="white"/>
</linearGradient>
<radialGradient id="paint1_radial_423_2" cx="0" cy="0" r="1" gradientUnits="userSpaceOnUse" gradientTransform="translate(2206.47 566.688) rotate(135) scale(3028.5)">
<stop stop-color="#134E5E"/>
<stop offset="1" stop-color="#8E1E62"/>
</radialGradient>
<clipPath id="clip0_423_2">
<rect width="1440" height="2880" fill="white"/>
</clipPath>
</defs>
</svg>
