<svg width="1440" height="2880" viewBox="0 0 1440 2880" fill="none" xmlns="http://www.w3.org/2000/svg">
<g clip-path="url(#clip0_132_386)">
<rect width="1440" height="2880" fill="url(#paint0_linear_132_386)"/>
<circle cx="720" cy="-161" r="1273" fill="url(#paint1_radial_132_386)"/>
<g style="mix-blend-mode:soft-light" opacity="0.35">
<path d="M902.54 -166.666C759.021 -322.222 569.816 -400 334.924 -400C81.3491 -400 -119.32 -319.89 -267.083 -159.669C-414.847 0.551682 -488.741 215.212 -488.765 484.311C-488.765 734.764 -416.237 938.156 -271.181 1094.49C-126.125 1250.82 66.9647 1328.99 308.088 1329C553.846 1329 750.235 1249.67 897.254 1091C1044.27 932.336 1117.77 716.511 1117.75 443.527C1117.76 192.294 1046.02 -11.1041 902.54 -166.666ZM692.539 7.13447C732.99 56.1768 764.334 114.441 786.571 181.926H368.171V-154.455C503.717 -144.477 611.828 -90.6021 692.503 7.1705L692.539 7.13447ZM827.284 470.299C827.284 535.191 822.126 595.271 811.813 650.539H368.171V288.142H812.722C822.406 343.968 827.247 404.699 827.247 470.335L827.284 470.299ZM-197.086 466.832C-197.086 403.052 -191.476 343.488 -180.255 288.142H261.991V650.575H-179.544C-191.233 593.86 -197.08 532.612 -197.086 466.832ZM261.991 -153.194V181.962H-149.917C-126.401 119.802 -94.0964 64.2695 -53.0026 15.3652C30.4336 -83.9562 135.431 -140.143 261.991 -153.194ZM-57.082 916.003C-95.6363 869.092 -126.227 816.009 -148.854 756.755H261.991V1084.4C132.658 1073.58 26.3002 1017.45 -57.082 916.003ZM368.171 1083.76V756.755H783.581C760.768 820.89 729.049 876.695 688.423 924.171C607.514 1018.67 500.764 1071.87 368.171 1083.76Z" fill="black"/>
</g>
</g>
<defs>
<linearGradient id="paint0_linear_132_386" x1="720" y1="0" x2="720" y2="2880" gradientUnits="userSpaceOnUse">
<stop stop-color="white"/>
<stop offset="1" stop-color="white"/>
</linearGradient>
<radialGradient id="paint1_radial_132_386" cx="0" cy="0" r="1" gradientUnits="userSpaceOnUse" gradientTransform="translate(1317.5 131.5) rotate(135.626) scale(1682.31)">
<stop stop-color="#ED1C1C"/>
<stop offset="1" stop-color="#8E1E62"/>
</radialGradient>
<clipPath id="clip0_132_386">
<rect width="1440" height="2880" fill="white"/>
</clipPath>
</defs>
</svg>
