<svg width="1440" height="2880" viewBox="0 0 1440 2880" fill="none" xmlns="http://www.w3.org/2000/svg">
<g clip-path="url(#clip0_169_150)">
<rect width="1440" height="2880" fill="url(#paint0_linear_169_150)"/>
<path d="M1993 3254.5C1993 3118.58 1858.88 2988.22 1620.15 2892.11C1381.41 2796 1057.62 2742 720 2742C382.38 2742 58.587 2796 -180.147 2892.11C-418.881 2988.22 -553 3118.58 -553 3254.5L720 3254.5H1993Z" fill="#891F5F"/>
<circle cx="720" cy="404" r="1273" fill="url(#paint1_radial_169_150)"/>
<path d="M120.298 507.893H157.759V516.301H130.415V527.922H143.95C147.687 527.922 150.786 528.378 153.247 529.289C155.708 530.201 157.804 531.887 159.536 534.348C161.291 536.809 162.168 539.691 162.168 542.995C162.168 546.39 161.291 549.296 159.536 551.711C157.782 554.126 155.776 555.778 153.521 556.667C151.287 557.556 148.097 558 143.95 558H120.298V507.893ZM130.415 549.592H140.259C143.403 549.592 145.614 549.444 146.89 549.147C148.166 548.828 149.271 548.122 150.205 547.028C151.162 545.935 151.641 544.59 151.641 542.995C151.641 540.671 150.809 538.985 149.146 537.937C147.505 536.866 144.691 536.33 140.703 536.33H130.415V549.592ZM170.405 521.701H180.01V536.774H189.648C193.431 536.774 196.313 537.048 198.296 537.595C200.301 538.119 201.987 539.281 203.354 541.081C204.744 542.881 205.439 545 205.439 547.438C205.439 550.948 204.232 553.591 201.816 555.368C199.401 557.123 195.778 558 190.947 558H170.405V521.701ZM180.01 551.916H188.931C191.255 551.916 192.941 551.551 193.989 550.822C195.037 550.093 195.562 548.908 195.562 547.268C195.562 545.513 194.878 544.317 193.511 543.679C192.166 543.018 189.74 542.688 186.23 542.688H180.01V551.916ZM210.908 521.701H220.513V558H210.908V521.701ZM225.845 521.701H258.691V529.46H247.07V558H237.466V529.46H225.845V521.701ZM264.673 521.701H274.277V536.774H283.916C287.699 536.774 290.604 537.048 292.632 537.595C294.66 538.142 296.346 539.326 297.69 541.149C299.035 542.95 299.707 545.046 299.707 547.438C299.707 550.948 298.499 553.591 296.084 555.368C293.691 557.123 290.091 558 285.283 558H264.673V521.701ZM274.277 551.916H283.232C286.035 551.916 287.824 551.46 288.599 550.549C289.396 549.637 289.795 548.555 289.795 547.302C289.795 545.547 289.111 544.34 287.744 543.679C286.4 543.018 283.996 542.688 280.532 542.688H274.277V551.916ZM329.614 521.701H361.777V558H352.207V529.494H339.116V545.798C339.116 549.945 338.638 552.862 337.681 554.548C336.724 556.211 335.664 557.305 334.502 557.829C333.34 558.353 331.471 558.615 328.896 558.615C327.37 558.615 325.353 558.41 322.847 558V550.925C323.052 550.925 323.587 550.948 324.453 550.993C325.456 551.062 326.23 551.096 326.777 551.096C328.076 551.096 328.874 550.674 329.17 549.831C329.466 548.965 329.614 546.584 329.614 542.688V521.701ZM366.016 521.701H376.235L384.917 547.473L393.394 521.701H403.34L390.522 556.633L388.232 562.956C387.389 565.075 386.58 566.693 385.806 567.81C385.054 568.926 384.176 569.826 383.174 570.51C382.194 571.216 380.975 571.763 379.517 572.15C378.081 572.538 376.452 572.731 374.629 572.731C372.783 572.731 370.972 572.538 369.194 572.15L368.34 564.631C369.844 564.927 371.2 565.075 372.407 565.075C374.64 565.075 376.292 564.414 377.363 563.093C378.434 561.794 379.255 560.131 379.824 558.103L366.016 521.701ZM408.398 521.701H418.105V530.383C418.105 532.365 418.276 533.846 418.618 534.826C418.983 535.783 419.735 536.615 420.874 537.321C422.036 538.005 423.494 538.347 425.249 538.347C426.958 538.347 428.872 537.959 430.991 537.185V521.701H440.596V558H430.991V543.508C427.254 544.51 424.406 545.012 422.446 545.012C419.507 545.012 416.864 544.385 414.517 543.132C412.17 541.856 410.563 540.238 409.697 538.278C408.831 536.296 408.398 533.664 408.398 530.383V521.701ZM449.961 521.701H458.779V550.241H469.922V521.701H478.774V550.241H489.883V521.701H498.735V558H449.961V521.701ZM529.6 546.447L539.17 548.054C537.939 551.563 535.991 554.24 533.325 556.086C530.682 557.909 527.367 558.82 523.379 558.82C517.067 558.82 512.396 556.758 509.365 552.634C506.973 549.33 505.776 545.16 505.776 540.124C505.776 534.108 507.349 529.403 510.493 526.008C513.638 522.59 517.614 520.881 522.422 520.881C527.822 520.881 532.083 522.67 535.205 526.247C538.327 529.802 539.819 535.259 539.683 542.619H515.62C515.688 545.467 516.463 547.689 517.944 549.284C519.425 550.856 521.271 551.643 523.481 551.643C524.985 551.643 526.25 551.232 527.275 550.412C528.301 549.592 529.076 548.27 529.6 546.447ZM530.146 536.74C530.078 533.96 529.36 531.853 527.993 530.417C526.626 528.959 524.963 528.229 523.003 528.229C520.907 528.229 519.175 528.993 517.808 530.52C516.44 532.046 515.768 534.12 515.791 536.74H530.146ZM566.65 521.701H576.221V536.535C577.816 536.353 578.944 535.863 579.604 535.065C580.265 534.268 581.063 532.525 581.997 529.836C583.228 526.258 584.572 523.968 586.03 522.966C587.489 521.963 589.403 521.462 591.772 521.462C592.502 521.462 593.766 521.519 595.566 521.633L595.601 527.99C593.071 527.99 591.453 528.229 590.747 528.708C590.041 529.209 589.277 530.702 588.457 533.186C587.34 536.535 585.734 538.597 583.638 539.372C586.668 540.215 589.232 542.847 591.328 547.268C591.442 547.495 591.567 547.735 591.704 547.985L597.07 558H586.748L581.963 547.507C580.983 545.388 580.129 544.032 579.399 543.439C578.693 542.824 577.633 542.517 576.221 542.517V558H566.65V521.701ZM609.272 532.775L600.557 531.203C601.536 527.694 603.223 525.096 605.615 523.41C608.008 521.724 611.562 520.881 616.279 520.881C620.563 520.881 623.753 521.394 625.85 522.419C627.946 523.422 629.416 524.709 630.259 526.281C631.125 527.831 631.558 530.69 631.558 534.86L631.455 546.071C631.455 549.261 631.603 551.62 631.899 553.146C632.218 554.65 632.799 556.268 633.643 558H624.141C623.89 557.362 623.582 556.416 623.218 555.163C623.058 554.593 622.944 554.217 622.876 554.035C621.235 555.63 619.481 556.826 617.612 557.624C615.744 558.422 613.75 558.82 611.631 558.82C607.894 558.82 604.943 557.806 602.778 555.778C600.636 553.75 599.565 551.187 599.565 548.088C599.565 546.037 600.055 544.214 601.035 542.619C602.015 541.001 603.382 539.771 605.137 538.928C606.914 538.062 609.466 537.31 612.793 536.672C617.282 535.829 620.392 535.043 622.124 534.313V533.356C622.124 531.511 621.668 530.201 620.757 529.426C619.845 528.628 618.125 528.229 615.596 528.229C613.887 528.229 612.554 528.571 611.597 529.255C610.64 529.916 609.865 531.089 609.272 532.775ZM622.124 540.568C620.894 540.979 618.945 541.468 616.279 542.038C613.613 542.608 611.87 543.166 611.05 543.713C609.797 544.602 609.17 545.729 609.17 547.097C609.17 548.441 609.671 549.603 610.674 550.583C611.676 551.563 612.952 552.053 614.502 552.053C616.234 552.053 617.886 551.483 619.458 550.344C620.62 549.478 621.383 548.418 621.748 547.165C621.999 546.345 622.124 544.784 622.124 542.482V540.568ZM656.099 558V542.517C654.845 542.608 653.968 542.893 653.467 543.371C652.988 543.827 652.134 545.205 650.903 547.507L646.323 558H636.001L641.128 547.985C643.726 542.972 646.426 540.101 649.229 539.372C647.132 538.575 645.526 536.512 644.409 533.186C643.566 530.702 642.791 529.221 642.085 528.742C641.401 528.241 639.784 527.99 637.231 527.99V521.633C639.123 521.519 640.444 521.462 641.196 521.462C643.315 521.462 645.127 521.929 646.631 522.863C648.135 523.798 649.548 526.122 650.869 529.836C651.895 532.73 652.715 534.564 653.33 535.339C653.945 536.091 654.868 536.49 656.099 536.535V521.701H665.635V536.535C666.865 536.535 667.788 536.136 668.403 535.339C669.041 534.541 669.862 532.707 670.864 529.836C672.163 526.167 673.542 523.854 675 522.897C676.481 521.94 678.372 521.462 680.674 521.462C681.335 521.462 682.611 521.519 684.502 521.633V527.99C681.973 527.99 680.355 528.241 679.648 528.742C678.942 529.221 678.167 530.702 677.324 533.186C676.208 536.512 674.601 538.575 672.505 539.372C675.308 540.101 678.008 542.972 680.605 547.985L685.732 558H675.41L670.864 547.507C670.044 545.638 669.281 544.362 668.574 543.679C667.891 542.995 666.911 542.608 665.635 542.517V558H656.099ZM720.698 558H693.218V567.57H685.425V550.139H689.355C690.996 548.316 692.352 545.467 693.423 541.594C694.494 537.72 695.132 531.089 695.337 521.701H724.629V550.139H728.525V567.57H720.698V558ZM715.127 550.139L715.161 529.597H703.54C703.153 539.623 701.558 546.47 698.755 550.139H715.127ZM735.19 521.701H744.795V536.774H754.434C758.216 536.774 761.099 537.048 763.081 537.595C765.086 538.119 766.772 539.281 768.14 541.081C769.53 542.881 770.225 545 770.225 547.438C770.225 550.948 769.017 553.591 766.602 555.368C764.186 557.123 760.563 558 755.732 558H735.19V521.701ZM744.795 551.916H753.716C756.04 551.916 757.726 551.551 758.774 550.822C759.823 550.093 760.347 548.908 760.347 547.268C760.347 545.513 759.663 544.317 758.296 543.679C756.951 543.018 754.525 542.688 751.016 542.688H744.795V551.916ZM775.693 521.701H785.298V558H775.693V521.701ZM794.697 521.701H803.926V544.499L818.691 521.701H828.125V558H818.896V534.792L803.926 558H794.697V521.701ZM817.7 506.97H822.383C822.109 510.069 821.016 512.507 819.102 514.284C817.21 516.039 814.749 516.916 811.719 516.916C808.688 516.916 806.216 516.039 804.302 514.284C802.41 512.507 801.328 510.069 801.055 506.97H805.737C805.897 508.588 806.466 509.818 807.446 510.661C808.426 511.481 809.85 511.892 811.719 511.892C813.587 511.892 815.011 511.481 815.991 510.661C816.971 509.818 817.541 508.588 817.7 506.97ZM887.495 558H860.015V567.57H852.222V550.139H856.152C857.793 548.316 859.149 545.467 860.22 541.594C861.291 537.72 861.929 531.089 862.134 521.701H891.426V550.139H895.322V567.57H887.495V558ZM881.924 550.139L881.958 529.597H870.337C869.95 539.623 868.354 546.47 865.552 550.139H881.924ZM922.939 546.447L932.51 548.054C931.279 551.563 929.331 554.24 926.665 556.086C924.022 557.909 920.706 558.82 916.719 558.82C910.407 558.82 905.736 556.758 902.705 552.634C900.312 549.33 899.116 545.16 899.116 540.124C899.116 534.108 900.688 529.403 903.833 526.008C906.978 522.59 910.954 520.881 915.762 520.881C921.162 520.881 925.423 522.67 928.545 526.247C931.667 529.802 933.159 535.259 933.022 542.619H908.96C909.028 545.467 909.803 547.689 911.284 549.284C912.765 550.856 914.611 551.643 916.821 551.643C918.325 551.643 919.59 551.232 920.615 550.412C921.641 549.592 922.415 548.27 922.939 546.447ZM923.486 536.74C923.418 533.96 922.7 531.853 921.333 530.417C919.966 528.959 918.302 528.229 916.343 528.229C914.246 528.229 912.515 528.993 911.147 530.52C909.78 532.046 909.108 534.12 909.131 536.74H923.486ZM940.508 521.701H950.112V534.997H963.853V521.701H973.491V558H963.853V542.756H950.112V558H940.508V521.701ZM983.403 521.701H993.008V536.774H1002.65C1006.43 536.774 1009.33 537.048 1011.36 537.595C1013.39 538.142 1015.08 539.326 1016.42 541.149C1017.77 542.95 1018.44 545.046 1018.44 547.438C1018.44 550.948 1017.23 553.591 1014.81 555.368C1012.42 557.123 1008.82 558 1004.01 558H983.403V521.701ZM993.008 551.916H1001.96C1004.77 551.916 1006.55 551.46 1007.33 550.549C1008.13 549.637 1008.53 548.555 1008.53 547.302C1008.53 545.547 1007.84 544.34 1006.47 543.679C1005.13 543.018 1002.73 542.688 999.263 542.688H993.008V551.916Z" fill="white"/>
<g style="mix-blend-mode:soft-light" opacity="0.35">
<path d="M902.54 -403.666C759.021 -559.222 569.816 -637 334.924 -637C81.3491 -637 -119.32 -556.89 -267.083 -396.669C-414.847 -236.448 -488.741 -21.7882 -488.765 247.311C-488.765 497.764 -416.237 701.156 -271.181 857.486C-126.125 1013.82 66.9647 1091.99 308.088 1092C553.846 1092 750.235 1012.67 897.254 854.001C1044.27 695.336 1117.77 479.511 1117.75 206.527C1117.76 -44.7064 1046.02 -248.104 902.54 -403.666ZM692.539 -229.866C732.99 -180.823 764.334 -122.559 786.571 -55.0744H368.171V-391.455C503.717 -381.477 611.828 -327.602 692.503 -229.829L692.539 -229.866ZM827.284 233.299C827.284 298.191 822.126 358.271 811.813 413.539H368.171V51.142H812.722C822.406 106.968 827.247 167.699 827.247 233.335L827.284 233.299ZM-197.086 229.832C-197.086 166.052 -191.476 106.488 -180.255 51.142H261.991V413.575H-179.544C-191.233 356.86 -197.08 295.612 -197.086 229.832ZM261.991 -390.194V-55.0384H-149.917C-126.401 -117.198 -94.0964 -172.73 -53.0026 -221.635C30.4336 -320.956 135.431 -377.143 261.991 -390.194ZM-57.082 679.003C-95.6363 632.092 -126.227 579.009 -148.854 519.755H261.991V847.401C132.658 836.582 26.3002 780.45 -57.082 679.003ZM368.171 846.761V519.755H783.581C760.768 583.89 729.049 639.695 688.423 687.171C607.514 781.672 500.764 834.868 368.171 846.761Z" fill="black"/>
</g>
<g clip-path="url(#clip1_169_150)">
<path d="M115.113 473.721V446.539C117.75 448.899 120.677 450.912 123.823 452.529C127.256 454.337 130.841 455.84 134.536 457.022C138.233 458.226 142.009 459.173 145.836 459.856C149.261 460.486 152.734 460.82 156.216 460.853C167.295 460.853 175.548 459.004 180.977 455.305C186.405 451.607 189.121 446.245 189.125 439.218C189.21 435.748 188.264 432.331 186.409 429.398C184.388 426.409 181.823 423.829 178.846 421.793C175.211 419.28 171.375 417.072 167.377 415.192C162.978 413.088 158.268 410.888 153.247 408.591C147.861 405.709 142.838 402.787 138.179 399.825C133.756 397.054 129.682 393.759 126.048 390.011C122.64 386.48 119.892 382.365 117.937 377.862C115.979 373.352 115 368.061 115 361.99C115 354.526 116.681 348.036 120.042 342.52C123.386 337.023 127.933 332.357 133.339 328.875C139.105 325.171 145.454 322.469 152.119 320.885C159.15 319.144 166.367 318.268 173.609 318.279C190.23 318.279 202.345 320.172 209.953 323.959V350.036C200.942 343.523 189.344 340.269 175.16 340.273C171.239 340.273 167.327 340.643 163.476 341.378C159.83 342.036 156.314 343.274 153.058 345.044C150.109 346.64 147.553 348.876 145.578 351.589C143.624 354.409 142.626 357.783 142.729 361.213C142.645 364.427 143.41 367.605 144.948 370.427C146.601 373.212 148.806 375.628 151.426 377.527C154.698 379.934 158.185 382.031 161.843 383.794C165.94 385.831 170.685 388.031 176.08 390.396C181.617 393.278 186.844 396.311 191.759 399.496C196.453 402.516 200.791 406.055 204.691 410.049C208.345 413.789 211.34 418.12 213.552 422.86C215.803 427.901 216.92 433.376 216.823 438.897C216.823 446.962 215.197 453.768 211.945 459.313C208.728 464.819 204.223 469.461 198.818 472.838C192.975 476.449 186.544 479.002 179.817 480.379C172.359 481.961 164.753 482.742 157.129 482.708C153.852 482.663 150.579 482.453 147.323 482.077C143.441 481.656 139.471 481.063 135.412 480.297C131.522 479.564 127.674 478.621 123.886 477.47C120.81 476.611 117.861 475.351 115.113 473.721Z" fill="white"/>
<path d="M412.71 480.045H387.004V418.133C387.004 406.222 385.324 397.597 381.962 392.257C378.601 386.918 372.929 384.255 364.947 384.268C358.225 384.268 352.519 387.633 347.83 394.365C343.142 401.097 340.799 409.169 340.804 418.581V480.045H314.965V416.025C314.965 394.87 307.505 384.293 292.586 384.293C285.641 384.293 279.936 387.474 275.47 393.835C271.004 400.197 268.771 408.445 268.771 418.581V480.045H243.077V366.445H268.771V384.419H269.218C277.411 370.661 289.339 363.782 305.001 363.782C312.829 363.782 319.679 365.944 325.553 370.27C331.331 374.462 335.56 380.455 337.577 387.309C345.98 371.629 358.536 363.788 375.244 363.788C400.213 363.788 412.698 379.21 412.698 410.055L412.71 480.045Z" fill="white"/>
<path d="M531.152 480.045H506.221V462.292H505.78C497.944 475.907 486.457 482.712 471.32 482.708C460.165 482.708 451.43 479.677 445.116 473.614C438.801 467.551 435.65 459.525 435.663 449.537C435.663 428.079 447.998 415.577 472.668 412.03L506.359 407.259C506.359 391.065 498.679 382.966 483.319 382.961C469.803 382.961 457.619 387.621 446.767 396.94V374.416C458.737 367.318 472.549 363.769 488.203 363.769C516.865 363.769 531.196 377.898 531.196 406.155L531.152 480.045ZM506.359 424.236L482.544 427.568C475.149 428.527 469.591 430.32 465.869 432.945C462.146 435.571 460.281 440.176 460.272 446.76C460.206 448.987 460.631 451.2 461.516 453.243C462.402 455.287 463.726 457.109 465.396 458.581C468.833 461.648 473.431 463.182 479.191 463.182C487.018 463.182 493.501 460.426 498.639 454.914C503.778 449.402 506.343 442.46 506.334 434.087L506.359 424.236Z" fill="white"/>
<path d="M628.318 390.951C625.217 388.507 620.749 387.287 614.913 387.291C607.3 387.291 600.948 390.73 595.855 397.609C590.763 404.488 588.215 413.846 588.211 425.681V480.045H562.505V366.445H588.211V389.853H588.652C591.173 381.859 595.032 375.628 600.229 371.16C605.426 366.691 611.243 364.453 617.68 364.445C622.335 364.445 625.881 365.147 628.318 366.552V390.951Z" fill="white"/>
<path d="M712.853 478.839C707.812 481.364 701.201 482.626 693.021 482.626C671.005 482.626 660 472.049 660.004 450.894V386.622H641.06V366.426H660.004V340.134L685.71 332.813V366.432H712.853V386.628H685.71V443.428C685.71 450.16 686.929 454.967 689.366 457.849C691.802 460.731 695.865 462.174 701.554 462.178C705.645 462.266 709.639 460.927 712.853 458.391V478.839Z" fill="white"/>
<path d="M970.678 332.813C967.063 330.776 962.971 329.741 958.824 329.815C946.342 329.815 940.098 336.88 940.094 351.008V366.432H966.468V386.628H940.208V480.032H914.501V386.628H895.11V366.432H914.501V348.01C914.501 336.032 918.417 326.582 926.248 319.661C934.08 312.74 943.867 309.283 955.61 309.292C961.962 309.292 966.985 309.994 970.678 311.4V332.813Z" fill="white"/>
<path d="M1048.9 332.813C1045.28 330.776 1041.19 329.741 1037.05 329.815C1024.56 329.815 1018.32 336.88 1018.32 351.008V366.432H1044.69V386.628H1018.43V480.032H992.723V386.628H973.344V366.432H992.735V348.01C992.735 336.032 996.651 326.582 1004.48 319.661C1012.31 312.74 1022.1 309.283 1033.84 309.292C1040.2 309.292 1045.22 309.994 1048.91 311.4L1048.9 332.813Z" fill="white"/>
<path d="M1075.93 342.576C1071.93 342.658 1068.06 341.185 1065.13 338.468C1063.67 337.16 1062.51 335.55 1061.74 333.75C1060.96 331.949 1060.59 330.002 1060.64 328.042C1060.6 326.066 1060.97 324.102 1061.75 322.284C1062.52 320.465 1063.67 318.833 1065.13 317.496C1068.03 314.721 1071.91 313.206 1075.93 313.28C1080.03 313.182 1084.01 314.695 1087.01 317.496C1088.48 318.823 1089.64 320.453 1090.43 322.273C1091.21 324.093 1091.6 326.06 1091.55 328.042C1091.57 329.978 1091.17 331.896 1090.39 333.666C1089.61 335.436 1088.45 337.017 1087.01 338.304C1084.02 341.136 1080.04 342.672 1075.93 342.576ZM1088.67 480.045H1062.97V366.445H1088.67V480.045Z" fill="white"/>
<path d="M1203.46 474.832C1194.37 480.083 1183.62 482.708 1171.22 482.708C1154.38 482.708 1140.79 477.438 1130.44 466.899C1120.1 456.359 1114.93 442.685 1114.93 425.877C1114.93 407.162 1120.49 392.127 1131.61 380.771C1142.72 369.416 1157.59 363.736 1176.2 363.731C1186.54 363.731 1195.66 365.543 1203.57 369.165V393.147C1195.66 387.228 1187.24 384.268 1178.31 384.268C1167.45 384.268 1158.55 387.947 1151.6 395.306C1144.66 402.665 1141.19 412.3 1141.19 424.211C1141.19 435.991 1144.46 445.275 1150.99 452.062C1157.53 458.848 1166.3 462.25 1177.31 462.267C1186.55 462.267 1195.27 458.976 1203.46 452.396V474.832Z" fill="white"/>
<path d="M1325 430.244H1247.67C1247.96 440.762 1251.19 448.862 1257.36 454.542C1263.53 460.222 1272 463.062 1282.78 463.062C1294.89 463.062 1306.01 459.437 1316.13 452.188V472.932C1305.78 479.445 1292.13 482.7 1275.16 482.695C1258.47 482.695 1245.38 477.537 1235.88 467.221C1226.39 456.904 1221.64 442.389 1221.65 423.674C1221.65 406.003 1226.87 391.599 1237.33 380.462C1247.78 369.325 1260.76 363.759 1276.27 363.763C1291.78 363.763 1303.78 368.755 1312.28 378.739C1320.77 388.723 1325.01 402.595 1325 420.355V430.244ZM1300.18 412.043C1300.11 402.787 1297.93 395.594 1293.65 390.465C1289.37 385.336 1283.46 382.766 1275.92 382.753C1272.4 382.698 1268.9 383.391 1265.66 384.787C1262.43 386.182 1259.52 388.249 1257.14 390.85C1252.01 396.252 1248.85 403.317 1247.69 412.043H1300.18Z" fill="white"/>
<path d="M859.824 340.469C846.199 325.675 828.232 318.279 805.923 318.279C781.844 318.279 762.787 325.896 748.75 341.131C734.713 356.366 727.697 376.783 727.701 402.38C727.701 426.199 734.589 445.553 748.366 460.443C762.142 475.332 780.479 482.765 803.377 482.74C826.711 482.74 845.361 475.196 859.326 460.108C873.292 445.02 880.273 424.495 880.268 398.531C880.268 374.616 873.454 355.262 859.824 340.469ZM839.878 356.997C843.864 361.931 846.891 367.57 848.802 373.621H809.099V341.642C821.964 342.589 832.223 347.707 839.878 356.997ZM852.678 401.049C852.71 406.796 852.214 412.534 851.197 418.19H809.08V383.719H851.304C852.256 389.445 852.716 395.243 852.678 401.049ZM755.399 400.714C755.369 395.009 755.91 389.316 757.012 383.719H798.997V418.19H757.075C755.927 412.437 755.365 406.581 755.399 400.714ZM798.997 341.756V373.621H759.886C762.032 367.855 765.141 362.496 769.081 357.774C777.004 348.332 786.976 342.993 798.997 341.756ZM768.696 443.434C764.994 438.891 762.055 433.776 759.993 428.287H798.997V459.433C786.712 458.406 776.612 453.073 768.696 443.434ZM809.08 459.389V428.287H848.563C846.553 434.106 843.489 439.504 839.525 444.21C831.824 453.197 821.676 458.257 809.08 459.389Z" fill="white"/>
</g>
</g>
<defs>
<linearGradient id="paint0_linear_169_150" x1="720" y1="0" x2="720" y2="2880" gradientUnits="userSpaceOnUse">
<stop stop-color="white"/>
<stop offset="1" stop-color="white"/>
</linearGradient>
<radialGradient id="paint1_radial_169_150" cx="0" cy="0" r="1" gradientUnits="userSpaceOnUse" gradientTransform="translate(1230.5 162.5) rotate(119.858) scale(1693.26)">
<stop stop-color="#ED1C1C"/>
<stop offset="1" stop-color="#8E1E62"/>
</radialGradient>
<clipPath id="clip0_169_150">
<rect width="1440" height="2880" fill="white"/>
</clipPath>
<clipPath id="clip1_169_150">
<rect width="1210" height="266" fill="white" transform="translate(115 263)"/>
</clipPath>
</defs>
</svg>
