<svg width="1440" height="2880" viewBox="0 0 1440 2880" fill="none" xmlns="http://www.w3.org/2000/svg">
<g clip-path="url(#clip0_168_28)">
<rect width="1440" height="2880" fill="url(#paint0_linear_168_28)"/>
<path d="M1993 3254.5C1993 3118.58 1858.88 2988.22 1620.15 2892.11C1381.41 2796 1057.62 2742 720 2742C382.38 2742 58.587 2796 -180.147 2892.11C-418.881 2988.22 -553 3118.58 -553 3254.5L720 3254.5H1993Z" fill="#891F5F"/>
<circle cx="720" cy="720" r="1273" fill="url(#paint1_radial_168_28)"/>
<g style="mix-blend-mode:soft-light" opacity="0.35">
<path d="M902.54 -84.6661C759.021 -240.222 569.816 -318 334.924 -318C81.3492 -318 -119.32 -237.89 -267.083 -77.669C-414.847 82.5517 -488.741 297.212 -488.765 566.311C-488.765 816.764 -416.237 1020.16 -271.181 1176.49C-126.125 1332.82 66.9649 1410.99 308.088 1411C553.846 1411 750.235 1331.67 897.254 1173C1044.27 1014.34 1117.77 798.511 1117.75 525.527C1117.76 274.294 1046.02 70.8959 902.54 -84.6661ZM692.539 89.1345C732.99 138.177 764.334 196.441 786.571 263.926H368.171V-72.455C503.717 -62.4772 611.828 -8.60205 692.503 89.1705L692.539 89.1345ZM827.284 552.299C827.284 617.191 822.127 677.271 811.813 732.539H368.171V370.142H812.722C822.406 425.968 827.248 486.699 827.248 552.335L827.284 552.299ZM-197.086 548.832C-197.086 485.052 -191.476 425.488 -180.255 370.142H261.991V732.575H-179.544C-191.232 675.86 -197.08 614.612 -197.086 548.832ZM261.991 -71.1942V263.962H-149.917C-126.401 201.802 -94.0963 146.27 -53.0025 97.3652C30.4338 -1.9562 135.431 -58.1427 261.991 -71.1942ZM-57.0819 998.003C-95.6362 951.092 -126.227 898.009 -148.854 838.755H261.991V1166.4C132.658 1155.58 26.3003 1099.45 -57.0819 998.003ZM368.171 1165.76V838.755H783.581C760.768 902.89 729.049 958.695 688.423 1006.17C607.514 1100.67 500.764 1153.87 368.171 1165.76Z" fill="black"/>
</g>
<g clip-path="url(#clip1_168_28)">
<path d="M115.113 794.721V767.539C117.75 769.899 120.677 771.912 123.823 773.529C127.256 775.337 130.841 776.84 134.536 778.022C138.233 779.226 142.009 780.173 145.836 780.856C149.261 781.486 152.734 781.82 156.216 781.853C167.295 781.853 175.548 780.004 180.977 776.305C186.405 772.607 189.121 767.245 189.125 760.218C189.21 756.748 188.264 753.331 186.409 750.398C184.388 747.409 181.823 744.829 178.846 742.793C175.211 740.28 171.375 738.072 167.377 736.192C162.978 734.088 158.268 731.888 153.247 729.591C147.861 726.709 142.838 723.787 138.179 720.825C133.756 718.054 129.682 714.759 126.048 711.011C122.64 707.48 119.892 703.365 117.937 698.862C115.979 694.352 115 689.061 115 682.99C115 675.526 116.681 669.036 120.042 663.52C123.386 658.023 127.933 653.357 133.339 649.875C139.105 646.171 145.454 643.469 152.119 641.885C159.15 640.144 166.367 639.268 173.609 639.279C190.23 639.279 202.345 641.172 209.953 644.959V671.036C200.942 664.523 189.344 661.269 175.16 661.273C171.239 661.273 167.327 661.643 163.476 662.378C159.83 663.036 156.314 664.274 153.058 666.044C150.109 667.64 147.553 669.876 145.578 672.589C143.624 675.409 142.626 678.783 142.729 682.213C142.645 685.427 143.41 688.605 144.948 691.427C146.601 694.212 148.806 696.628 151.426 698.527C154.698 700.934 158.185 703.031 161.843 704.794C165.94 706.831 170.685 709.031 176.08 711.396C181.617 714.278 186.844 717.311 191.759 720.496C196.453 723.516 200.791 727.055 204.691 731.049C208.345 734.789 211.34 739.12 213.552 743.86C215.803 748.901 216.92 754.376 216.823 759.897C216.823 767.962 215.197 774.768 211.945 780.313C208.728 785.819 204.223 790.461 198.818 793.838C192.975 797.449 186.544 800.002 179.817 801.379C172.359 802.961 164.753 803.742 157.129 803.708C153.852 803.663 150.579 803.453 147.323 803.077C143.441 802.656 139.471 802.063 135.412 801.297C131.522 800.564 127.674 799.621 123.886 798.47C120.81 797.611 117.861 796.351 115.113 794.721Z" fill="white"/>
<path d="M412.71 801.045H387.004V739.133C387.004 727.222 385.324 718.597 381.962 713.257C378.601 707.918 372.929 705.255 364.947 705.268C358.225 705.268 352.519 708.633 347.83 715.365C343.142 722.097 340.799 730.169 340.804 739.581V801.045H314.965V737.025C314.965 715.87 307.505 705.293 292.586 705.293C285.641 705.293 279.936 708.474 275.47 714.835C271.004 721.197 268.771 729.445 268.771 739.581V801.045H243.077V687.445H268.771V705.419H269.218C277.411 691.661 289.339 684.782 305.001 684.782C312.829 684.782 319.679 686.944 325.553 691.27C331.331 695.462 335.56 701.455 337.577 708.309C345.98 692.629 358.536 684.788 375.244 684.788C400.213 684.788 412.698 700.21 412.698 731.055L412.71 801.045Z" fill="white"/>
<path d="M531.152 801.045H506.221V783.292H505.78C497.944 796.907 486.457 803.712 471.32 803.708C460.165 803.708 451.43 800.677 445.116 794.614C438.801 788.551 435.65 780.525 435.663 770.537C435.663 749.079 447.998 736.577 472.668 733.03L506.359 728.259C506.359 712.065 498.679 703.966 483.319 703.961C469.803 703.961 457.619 708.621 446.767 717.94V695.416C458.737 688.318 472.549 684.769 488.203 684.769C516.865 684.769 531.196 698.898 531.196 727.155L531.152 801.045ZM506.359 745.236L482.544 748.568C475.149 749.527 469.591 751.32 465.869 753.945C462.146 756.571 460.281 761.176 460.272 767.76C460.206 769.987 460.631 772.2 461.516 774.243C462.402 776.287 463.726 778.109 465.396 779.581C468.833 782.648 473.431 784.182 479.191 784.182C487.018 784.182 493.501 781.426 498.639 775.914C503.778 770.402 506.343 763.46 506.334 755.087L506.359 745.236Z" fill="white"/>
<path d="M628.317 711.951C625.217 709.507 620.748 708.287 614.913 708.291C607.3 708.291 600.947 711.73 595.855 718.609C590.763 725.488 588.215 734.846 588.211 746.681V801.045H562.505V687.445H588.211V710.853H588.652C591.173 702.859 595.032 696.628 600.229 692.16C605.426 687.691 611.243 685.453 617.679 685.445C622.335 685.445 625.88 686.147 628.317 687.552V711.951Z" fill="white"/>
<path d="M712.853 799.839C707.812 802.364 701.201 803.626 693.021 803.626C671.005 803.626 660 793.049 660.004 771.894V707.622H641.06V687.426H660.004V661.134L685.71 653.813V687.432H712.853V707.628H685.71V764.428C685.71 771.16 686.929 775.967 689.366 778.849C691.802 781.731 695.865 783.174 701.554 783.178C705.645 783.266 709.639 781.927 712.853 779.391V799.839Z" fill="white"/>
<path d="M970.678 653.813C967.063 651.776 962.971 650.741 958.824 650.815C946.341 650.815 940.098 657.88 940.094 672.008V687.432H966.468V707.628H940.207V801.032H914.501V707.628H895.11V687.432H914.501V669.01C914.501 657.032 918.417 647.582 926.248 640.661C934.08 633.74 943.867 630.283 955.61 630.292C961.962 630.292 966.985 630.994 970.678 632.4V653.813Z" fill="white"/>
<path d="M1048.9 653.813C1045.28 651.776 1041.19 650.741 1037.05 650.815C1024.56 650.815 1018.32 657.88 1018.32 672.008V687.432H1044.69V707.628H1018.43V801.032H992.723V707.628H973.344V687.432H992.735V669.01C992.735 657.032 996.651 647.582 1004.48 640.661C1012.31 633.74 1022.1 630.283 1033.84 630.292C1040.2 630.292 1045.22 630.994 1048.91 632.4L1048.9 653.813Z" fill="white"/>
<path d="M1075.93 663.576C1071.93 663.658 1068.06 662.185 1065.13 659.468C1063.67 658.16 1062.51 656.55 1061.74 654.75C1060.96 652.949 1060.59 651.002 1060.64 649.042C1060.6 647.066 1060.97 645.102 1061.75 643.284C1062.52 641.465 1063.67 639.833 1065.13 638.496C1068.03 635.721 1071.91 634.206 1075.93 634.28C1080.03 634.182 1084.01 635.695 1087.01 638.496C1088.48 639.823 1089.65 641.453 1090.43 643.273C1091.21 645.093 1091.6 647.06 1091.55 649.042C1091.57 650.978 1091.17 652.896 1090.39 654.666C1089.61 656.436 1088.45 658.017 1087.01 659.304C1084.02 662.136 1080.04 663.672 1075.93 663.576ZM1088.67 801.045H1062.97V687.445H1088.67V801.045Z" fill="white"/>
<path d="M1203.46 795.832C1194.37 801.083 1183.62 803.708 1171.22 803.708C1154.38 803.708 1140.79 798.438 1130.44 787.899C1120.1 777.359 1114.93 763.685 1114.93 746.877C1114.93 728.162 1120.49 713.127 1131.61 701.771C1142.72 690.416 1157.59 684.736 1176.2 684.731C1186.54 684.731 1195.66 686.543 1203.57 690.165V714.147C1195.66 708.228 1187.24 705.268 1178.31 705.268C1167.45 705.268 1158.55 708.947 1151.6 716.306C1144.66 723.665 1141.19 733.3 1141.19 745.211C1141.19 756.991 1144.46 766.275 1150.99 773.062C1157.53 779.848 1166.3 783.25 1177.31 783.267C1186.55 783.267 1195.27 779.976 1203.46 773.396V795.832Z" fill="white"/>
<path d="M1325 751.244H1247.67C1247.96 761.762 1251.19 769.862 1257.36 775.542C1263.53 781.222 1272 784.062 1282.78 784.062C1294.89 784.062 1306.01 780.437 1316.13 773.188V793.932C1305.78 800.445 1292.13 803.7 1275.16 803.695C1258.47 803.695 1245.38 798.537 1235.88 788.221C1226.39 777.904 1221.64 763.389 1221.65 744.674C1221.65 727.003 1226.87 712.599 1237.33 701.462C1247.78 690.325 1260.76 684.759 1276.27 684.763C1291.78 684.763 1303.78 689.755 1312.28 699.739C1320.77 709.723 1325.01 723.595 1325 741.355V751.244ZM1300.18 733.043C1300.11 723.787 1297.93 716.594 1293.65 711.465C1289.37 706.336 1283.46 703.766 1275.92 703.753C1272.4 703.698 1268.9 704.391 1265.66 705.787C1262.43 707.182 1259.52 709.249 1257.14 711.85C1252.01 717.252 1248.85 724.317 1247.69 733.043H1300.18Z" fill="white"/>
<path d="M859.824 661.469C846.199 646.675 828.232 639.279 805.923 639.279C781.844 639.279 762.787 646.896 748.75 662.131C734.713 677.366 727.697 697.783 727.701 723.38C727.701 747.199 734.589 766.553 748.366 781.443C762.142 796.332 780.479 803.765 803.377 803.74C826.711 803.74 845.361 796.196 859.326 781.108C873.292 766.02 880.273 745.495 880.268 719.531C880.268 695.616 873.454 676.262 859.824 661.469ZM839.878 677.997C843.864 682.931 846.891 688.57 848.802 694.621H809.099V662.642C821.964 663.589 832.223 668.707 839.878 677.997ZM852.678 722.049C852.71 727.796 852.214 733.534 851.197 739.19H809.08V704.719H851.304C852.256 710.445 852.716 716.243 852.678 722.049ZM755.399 721.714C755.369 716.009 755.91 710.316 757.012 704.719H798.997V739.19H757.075C755.927 733.437 755.365 727.581 755.399 721.714ZM798.997 662.756V694.621H759.886C762.032 688.855 765.141 683.496 769.081 678.774C777.004 669.332 786.976 663.993 798.997 662.756ZM768.696 764.434C764.994 759.891 762.055 754.776 759.993 749.287H798.997V780.433C786.712 779.406 776.612 774.073 768.696 764.434ZM809.08 780.389V749.287H848.563C846.553 755.106 843.489 760.504 839.525 765.21C831.824 774.197 821.676 779.257 809.08 780.389Z" fill="white"/>
</g>
<path d="M120.298 828.893H157.759V837.301H130.415V848.922H143.95C147.687 848.922 150.786 849.378 153.247 850.289C155.708 851.201 157.804 852.887 159.536 855.348C161.291 857.809 162.168 860.691 162.168 863.995C162.168 867.39 161.291 870.296 159.536 872.711C157.782 875.126 155.776 876.778 153.521 877.667C151.287 878.556 148.097 879 143.95 879H120.298V828.893ZM130.415 870.592H140.259C143.403 870.592 145.614 870.444 146.89 870.147C148.166 869.828 149.271 869.122 150.205 868.028C151.162 866.935 151.641 865.59 151.641 863.995C151.641 861.671 150.809 859.985 149.146 858.937C147.505 857.866 144.691 857.33 140.703 857.33H130.415V870.592ZM170.405 842.701H180.01V857.774H189.648C193.431 857.774 196.313 858.048 198.296 858.595C200.301 859.119 201.987 860.281 203.354 862.081C204.744 863.881 205.439 866 205.439 868.438C205.439 871.948 204.232 874.591 201.816 876.368C199.401 878.123 195.778 879 190.947 879H170.405V842.701ZM180.01 872.916H188.931C191.255 872.916 192.941 872.551 193.989 871.822C195.037 871.093 195.562 869.908 195.562 868.268C195.562 866.513 194.878 865.317 193.511 864.679C192.166 864.018 189.74 863.688 186.23 863.688H180.01V872.916ZM210.908 842.701H220.513V879H210.908V842.701ZM225.845 842.701H258.691V850.46H247.07V879H237.466V850.46H225.845V842.701ZM264.673 842.701H274.277V857.774H283.916C287.699 857.774 290.604 858.048 292.632 858.595C294.66 859.142 296.346 860.326 297.69 862.149C299.035 863.95 299.707 866.046 299.707 868.438C299.707 871.948 298.499 874.591 296.084 876.368C293.691 878.123 290.091 879 285.283 879H264.673V842.701ZM274.277 872.916H283.232C286.035 872.916 287.824 872.46 288.599 871.549C289.396 870.637 289.795 869.555 289.795 868.302C289.795 866.547 289.111 865.34 287.744 864.679C286.4 864.018 283.996 863.688 280.532 863.688H274.277V872.916ZM329.614 842.701H361.777V879H352.207V850.494H339.116V866.798C339.116 870.945 338.638 873.862 337.681 875.548C336.724 877.211 335.664 878.305 334.502 878.829C333.34 879.353 331.471 879.615 328.896 879.615C327.37 879.615 325.353 879.41 322.847 879V871.925C323.052 871.925 323.587 871.948 324.453 871.993C325.456 872.062 326.23 872.096 326.777 872.096C328.076 872.096 328.874 871.674 329.17 870.831C329.466 869.965 329.614 867.584 329.614 863.688V842.701ZM366.016 842.701H376.235L384.917 868.473L393.394 842.701H403.34L390.522 877.633L388.232 883.956C387.389 886.075 386.58 887.693 385.806 888.81C385.054 889.926 384.176 890.826 383.174 891.51C382.194 892.216 380.975 892.763 379.517 893.15C378.081 893.538 376.452 893.731 374.629 893.731C372.783 893.731 370.972 893.538 369.194 893.15L368.34 885.631C369.844 885.927 371.2 886.075 372.407 886.075C374.64 886.075 376.292 885.414 377.363 884.093C378.434 882.794 379.255 881.131 379.824 879.103L366.016 842.701ZM408.398 842.701H418.105V851.383C418.105 853.365 418.276 854.846 418.618 855.826C418.983 856.783 419.735 857.615 420.874 858.321C422.036 859.005 423.494 859.347 425.249 859.347C426.958 859.347 428.872 858.959 430.991 858.185V842.701H440.596V879H430.991V864.508C427.254 865.51 424.406 866.012 422.446 866.012C419.507 866.012 416.864 865.385 414.517 864.132C412.17 862.856 410.563 861.238 409.697 859.278C408.831 857.296 408.398 854.664 408.398 851.383V842.701ZM449.961 842.701H458.779V871.241H469.922V842.701H478.774V871.241H489.883V842.701H498.735V879H449.961V842.701ZM529.6 867.447L539.17 869.054C537.939 872.563 535.991 875.24 533.325 877.086C530.682 878.909 527.367 879.82 523.379 879.82C517.067 879.82 512.396 877.758 509.365 873.634C506.973 870.33 505.776 866.16 505.776 861.124C505.776 855.108 507.349 850.403 510.493 847.008C513.638 843.59 517.614 841.881 522.422 841.881C527.822 841.881 532.083 843.67 535.205 847.247C538.327 850.802 539.819 856.259 539.683 863.619H515.62C515.688 866.467 516.463 868.689 517.944 870.284C519.425 871.856 521.271 872.643 523.481 872.643C524.985 872.643 526.25 872.232 527.275 871.412C528.301 870.592 529.076 869.27 529.6 867.447ZM530.146 857.74C530.078 854.96 529.36 852.853 527.993 851.417C526.626 849.959 524.963 849.229 523.003 849.229C520.907 849.229 519.175 849.993 517.808 851.52C516.44 853.046 515.768 855.12 515.791 857.74H530.146ZM566.65 842.701H576.221V857.535C577.816 857.353 578.944 856.863 579.604 856.065C580.265 855.268 581.063 853.525 581.997 850.836C583.228 847.258 584.572 844.968 586.03 843.966C587.489 842.963 589.403 842.462 591.772 842.462C592.502 842.462 593.766 842.519 595.566 842.633L595.601 848.99C593.071 848.99 591.453 849.229 590.747 849.708C590.041 850.209 589.277 851.702 588.457 854.186C587.34 857.535 585.734 859.597 583.638 860.372C586.668 861.215 589.232 863.847 591.328 868.268C591.442 868.495 591.567 868.735 591.704 868.985L597.07 879H586.748L581.963 868.507C580.983 866.388 580.129 865.032 579.399 864.439C578.693 863.824 577.633 863.517 576.221 863.517V879H566.65V842.701ZM609.272 853.775L600.557 852.203C601.536 848.694 603.223 846.096 605.615 844.41C608.008 842.724 611.562 841.881 616.279 841.881C620.563 841.881 623.753 842.394 625.85 843.419C627.946 844.422 629.416 845.709 630.259 847.281C631.125 848.831 631.558 851.69 631.558 855.86L631.455 867.071C631.455 870.261 631.603 872.62 631.899 874.146C632.218 875.65 632.799 877.268 633.643 879H624.141C623.89 878.362 623.582 877.416 623.218 876.163C623.058 875.593 622.944 875.217 622.876 875.035C621.235 876.63 619.481 877.826 617.612 878.624C615.744 879.422 613.75 879.82 611.631 879.82C607.894 879.82 604.943 878.806 602.778 876.778C600.636 874.75 599.565 872.187 599.565 869.088C599.565 867.037 600.055 865.214 601.035 863.619C602.015 862.001 603.382 860.771 605.137 859.928C606.914 859.062 609.466 858.31 612.793 857.672C617.282 856.829 620.392 856.043 622.124 855.313V854.356C622.124 852.511 621.668 851.201 620.757 850.426C619.845 849.628 618.125 849.229 615.596 849.229C613.887 849.229 612.554 849.571 611.597 850.255C610.64 850.916 609.865 852.089 609.272 853.775ZM622.124 861.568C620.894 861.979 618.945 862.468 616.279 863.038C613.613 863.608 611.87 864.166 611.05 864.713C609.797 865.602 609.17 866.729 609.17 868.097C609.17 869.441 609.671 870.603 610.674 871.583C611.676 872.563 612.952 873.053 614.502 873.053C616.234 873.053 617.886 872.483 619.458 871.344C620.62 870.478 621.383 869.418 621.748 868.165C621.999 867.345 622.124 865.784 622.124 863.482V861.568ZM656.099 879V863.517C654.845 863.608 653.968 863.893 653.467 864.371C652.988 864.827 652.134 866.205 650.903 868.507L646.323 879H636.001L641.128 868.985C643.726 863.972 646.426 861.101 649.229 860.372C647.132 859.575 645.526 857.512 644.409 854.186C643.566 851.702 642.791 850.221 642.085 849.742C641.401 849.241 639.784 848.99 637.231 848.99V842.633C639.123 842.519 640.444 842.462 641.196 842.462C643.315 842.462 645.127 842.929 646.631 843.863C648.135 844.798 649.548 847.122 650.869 850.836C651.895 853.73 652.715 855.564 653.33 856.339C653.945 857.091 654.868 857.49 656.099 857.535V842.701H665.635V857.535C666.865 857.535 667.788 857.136 668.403 856.339C669.041 855.541 669.862 853.707 670.864 850.836C672.163 847.167 673.542 844.854 675 843.897C676.481 842.94 678.372 842.462 680.674 842.462C681.335 842.462 682.611 842.519 684.502 842.633V848.99C681.973 848.99 680.355 849.241 679.648 849.742C678.942 850.221 678.167 851.702 677.324 854.186C676.208 857.512 674.601 859.575 672.505 860.372C675.308 861.101 678.008 863.972 680.605 868.985L685.732 879H675.41L670.864 868.507C670.044 866.638 669.281 865.362 668.574 864.679C667.891 863.995 666.911 863.608 665.635 863.517V879H656.099ZM720.698 879H693.218V888.57H685.425V871.139H689.355C690.996 869.316 692.352 866.467 693.423 862.594C694.494 858.72 695.132 852.089 695.337 842.701H724.629V871.139H728.525V888.57H720.698V879ZM715.127 871.139L715.161 850.597H703.54C703.153 860.623 701.558 867.47 698.755 871.139H715.127ZM735.19 842.701H744.795V857.774H754.434C758.216 857.774 761.099 858.048 763.081 858.595C765.086 859.119 766.772 860.281 768.14 862.081C769.53 863.881 770.225 866 770.225 868.438C770.225 871.948 769.017 874.591 766.602 876.368C764.186 878.123 760.563 879 755.732 879H735.19V842.701ZM744.795 872.916H753.716C756.04 872.916 757.726 872.551 758.774 871.822C759.823 871.093 760.347 869.908 760.347 868.268C760.347 866.513 759.663 865.317 758.296 864.679C756.951 864.018 754.525 863.688 751.016 863.688H744.795V872.916ZM775.693 842.701H785.298V879H775.693V842.701ZM794.697 842.701H803.926V865.499L818.691 842.701H828.125V879H818.896V855.792L803.926 879H794.697V842.701ZM817.7 827.97H822.383C822.109 831.069 821.016 833.507 819.102 835.284C817.21 837.039 814.749 837.916 811.719 837.916C808.688 837.916 806.216 837.039 804.302 835.284C802.41 833.507 801.328 831.069 801.055 827.97H805.737C805.897 829.588 806.466 830.818 807.446 831.661C808.426 832.481 809.85 832.892 811.719 832.892C813.587 832.892 815.011 832.481 815.991 831.661C816.971 830.818 817.541 829.588 817.7 827.97ZM887.495 879H860.015V888.57H852.222V871.139H856.152C857.793 869.316 859.149 866.467 860.22 862.594C861.291 858.72 861.929 852.089 862.134 842.701H891.426V871.139H895.322V888.57H887.495V879ZM881.924 871.139L881.958 850.597H870.337C869.95 860.623 868.354 867.47 865.552 871.139H881.924ZM922.939 867.447L932.51 869.054C931.279 872.563 929.331 875.24 926.665 877.086C924.022 878.909 920.706 879.82 916.719 879.82C910.407 879.82 905.736 877.758 902.705 873.634C900.312 870.33 899.116 866.16 899.116 861.124C899.116 855.108 900.688 850.403 903.833 847.008C906.978 843.59 910.954 841.881 915.762 841.881C921.162 841.881 925.423 843.67 928.545 847.247C931.667 850.802 933.159 856.259 933.022 863.619H908.96C909.028 866.467 909.803 868.689 911.284 870.284C912.765 871.856 914.611 872.643 916.821 872.643C918.325 872.643 919.59 872.232 920.615 871.412C921.641 870.592 922.415 869.27 922.939 867.447ZM923.486 857.74C923.418 854.96 922.7 852.853 921.333 851.417C919.966 849.959 918.302 849.229 916.343 849.229C914.246 849.229 912.515 849.993 911.147 851.52C909.78 853.046 909.108 855.12 909.131 857.74H923.486ZM940.508 842.701H950.112V855.997H963.853V842.701H973.491V879H963.853V863.756H950.112V879H940.508V842.701ZM983.403 842.701H993.008V857.774H1002.65C1006.43 857.774 1009.33 858.048 1011.36 858.595C1013.39 859.142 1015.08 860.326 1016.42 862.149C1017.77 863.95 1018.44 866.046 1018.44 868.438C1018.44 871.948 1017.23 874.591 1014.81 876.368C1012.42 878.123 1008.82 879 1004.01 879H983.403V842.701ZM993.008 872.916H1001.96C1004.77 872.916 1006.55 872.46 1007.33 871.549C1008.13 870.637 1008.53 869.555 1008.53 868.302C1008.53 866.547 1007.84 865.34 1006.47 864.679C1005.13 864.018 1002.73 863.688 999.263 863.688H993.008V872.916Z" fill="white"/>
</g>
<defs>
<linearGradient id="paint0_linear_168_28" x1="720" y1="0" x2="720" y2="2880" gradientUnits="userSpaceOnUse">
<stop stop-color="white"/>
<stop offset="1" stop-color="white"/>
</linearGradient>
<radialGradient id="paint1_radial_168_28" cx="0" cy="0" r="1" gradientUnits="userSpaceOnUse" gradientTransform="translate(1286 171) rotate(116.835) scale(1990.35)">
<stop stop-color="#ED1C1C"/>
<stop offset="1" stop-color="#8E1E62"/>
</radialGradient>
<clipPath id="clip0_168_28">
<rect width="1440" height="2880" fill="white"/>
</clipPath>
<clipPath id="clip1_168_28">
<rect width="1210" height="266" fill="white" transform="translate(115 584)"/>
</clipPath>
</defs>
</svg>
